<?xml version="1.0" encoding="UTF-8"?>
<svg width="52px" height="14px" viewBox="0 0 52 14" version="1.1" xmlns="http://www.w3.org/2000/svg" xmlns:xlink="http://www.w3.org/1999/xlink">
    <!-- Generator: Sketch 63.1 (92452) - https://sketch.com -->
    <title>adidas</title>
    <desc>Created with Sketch.</desc>
    <g id="MSCHFX" stroke="none" stroke-width="1" fill="none" fill-rule="evenodd">
        <g id="Desktop-|-Launch-State" transform="translate(-1078.000000, -204.000000)" fill="#010202">
            <g id="HOMEPAGE" transform="translate(161.000000, 52.000000)">
                <g id="SHIRT-PIECE-MODAL" transform="translate(538.000000, 56.000000)">
                    <g id="BrandLogos" transform="translate(375.699984, 19.549999)">
                        <path d="M51.4160144,80.0182484 C53.38675,80.0064733 54.896636,81.1646039 55.0420461,82.8738832 L55.0523634,83.059101 L53.0481711,83.0732771 C52.936468,82.2987923 52.3294867,81.7435638 51.3657019,81.7435638 C50.8584225,81.7435638 49.757086,81.9193468 49.757086,82.5912914 C49.757086,83.592593 51.4280156,83.6800119 51.8355932,83.7064739 C54.5095421,83.9597526 55.2882322,85.1637717 55.2882322,86.581849 C55.2882322,87.6332392 54.76849,88.4185923 54.0267265,88.975711 C53.3957429,89.4444657 52.0963874,89.6339522 51.3038498,89.6339522 C49.6067533,89.6339522 47.8881418,88.7146116 47.5593346,86.6424306 L47.5294876,86.4159892 L49.4976765,86.4159892 C49.6070716,87.4683245 50.6848673,87.8610011 51.2913871,87.8610011 C52.3918004,87.8610011 53.1718752,87.3799605 53.1718752,86.8228418 C53.1718752,85.9358937 52.3677981,85.7449896 51.2036864,85.6192953 C50.5496236,85.5436897 49.2978112,85.3149828 48.7789921,84.8712725 C48.198321,84.4029904 47.7030427,83.8704435 47.7030427,82.9584511 C47.7030427,81.3239527 48.9520857,80.0325148 51.4160144,80.0182484 Z M36.4776271,77.0806363 L36.4776271,89.4204136 L34.4978986,89.4204136 L34.4978986,88.5844993 C33.7436724,89.1666624 32.7914272,89.4960192 31.7750219,89.4960192 C29.2386247,89.4960192 27.1605791,87.3800078 27.1605791,84.7692522 C27.1605791,82.1722002 29.2386247,80.0576064 31.7750219,80.0576064 C32.7914272,80.0576064 33.7316712,80.3992491 34.4978986,80.9691263 L34.4978986,80.9691263 L34.4978986,77.0806363 L36.4776271,77.0806363 Z M42.0584857,80.0576064 C42.9897674,80.0576064 43.8574404,80.3446812 44.5676431,80.8314775 L44.7573601,80.9691263 L44.7573601,80.0703648 L46.7606292,80.0703648 L46.7606292,89.4204136 L44.7813624,89.4204136 L44.7573601,88.5844993 C44.0142118,89.1666624 43.0744293,89.4960192 42.0584857,89.4960192 C39.5096257,89.4960192 37.4435813,87.3800078 37.4435813,84.7692522 C37.4435813,82.1722002 39.5096257,80.0576064 42.0584857,80.0576064 Z M7.95324361,80.0576064 C8.88452529,80.0576064 9.7521983,80.3446812 10.480889,80.8314775 L10.6761203,80.9691263 L10.6761203,80.0703648 L12.6553872,80.0703648 L12.6553872,89.4204136 L10.6761203,89.4204136 L10.6761203,88.5844993 C9.88819853,89.1808384 8.93318381,89.5007446 7.95324361,89.4960708 C5.39238248,89.4960708 3.35080195,87.3800078 3.35080195,84.7692522 C3.35080195,82.1722002 5.39238248,80.0576064 7.95324361,80.0576064 Z M22.8412262,77.0806363 L22.8412262,89.4204136 L20.8494966,89.4204136 L20.8494966,88.5844993 C20.0615748,89.1803659 19.1065601,89.500272 18.1270815,89.4960611 C15.5768367,89.4960611 13.5107923,87.3800078 13.5107923,84.7692522 C13.5107923,82.1722002 15.5768367,80.0576064 18.1270815,80.0576064 C19.0566707,80.0576064 19.9242026,80.3446812 20.6432821,80.8314775 L20.8356491,80.9691263 L20.8356491,77.0806363 L22.8412262,77.0806363 Z M26.2806639,80.0699868 L26.2806639,89.4200356 L24.2884727,89.4200356 L24.2884727,80.0699868 L26.2806639,80.0699868 Z M31.7750219,81.9968892 L31.7579434,81.9968892 C30.2661079,82.0011426 29.0604537,83.2424918 29.0645973,84.7692522 L29.0645973,84.7692522 L29.0645973,84.8032747 C29.0733781,86.3267274 30.2873407,87.5543732 31.7750219,87.5449767 L31.7750219,87.5449767 L31.7925621,87.5449767 C33.2848591,87.5397246 34.4909749,86.2969577 34.4859134,84.7692522 L34.4859134,84.7692522 C34.4849743,83.2363489 33.2714732,81.9959447 31.7750219,81.9968892 L31.7750219,81.9968892 Z M42.0584857,81.9968897 C40.5615728,81.9968897 39.3619192,83.2368214 39.3619192,84.7692522 C39.3619192,86.3163316 40.5615728,87.5449225 42.0584857,87.5449225 L42.0584857,87.5449225 L42.0691021,87.5449225 C43.5600144,87.5378344 44.7633606,86.2955401 44.7569244,84.7692522 C44.7569244,83.2368214 43.5429358,81.9968897 42.0584857,81.9968897 Z M7.95324361,81.9968897 C6.45633074,81.9968897 5.25667715,83.2368214 5.25667715,84.7692522 C5.25667715,86.2590324 6.36911312,87.4534788 7.7881891,87.5399128 L7.95324361,87.5449225 L7.97170692,87.5449225 C9.46354239,87.539252 10.6691966,86.2969577 10.6641351,84.7692522 C10.6641351,83.2368214 9.45061808,81.9968897 7.95324361,81.9968897 Z M18.1266199,81.9968892 C16.6829258,81.9973448 15.505891,83.1484619 15.4210957,84.6004306 L15.4162058,84.7692522 L15.4162058,84.7895712 C15.4210953,86.26024 16.5469811,87.4587986 17.9621006,87.5405173 L18.1266199,87.5449419 L18.1460064,87.5449419 C19.5821442,87.5385527 20.7516227,86.3859012 20.8309424,84.9376246 L20.8352098,84.7692522 C20.8347259,83.2363489 19.622148,81.9959447 18.1266199,81.9968892 Z M26.2806639,77.0684449 L26.2806639,79.4240315 L24.2884727,79.4240315 L24.2884727,77.0684449 L26.2806639,77.0684449 Z" id="adidas"></path>
                    </g>
                </g>
            </g>
        </g>
    </g>
</svg>