<?xml version="1.0" encoding="UTF-8"?>
<svg width="56px" height="82px" viewBox="0 0 56 82" version="1.1" xmlns="http://www.w3.org/2000/svg" xmlns:xlink="http://www.w3.org/1999/xlink">
    <!-- Generator: Sketch 63.1 (92452) - https://sketch.com -->
    <title>BAPE</title>
    <desc>Created with Sketch.</desc>
    <g id="MSCHFX" stroke="none" stroke-width="1" fill="none" fill-rule="evenodd">
        <g id="Desktop-|-Launch-State" transform="translate(-1075.000000, -250.000000)" fill="#0D00FF">
            <g id="HOMEPAGE" transform="translate(161.000000, 52.000000)">
                <g id="SHIRT-PIECE-MODAL" transform="translate(538.000000, 56.000000)">
                    <g id="BrandLogos" transform="translate(375.699984, 19.549999)">
                        <path d="M38.1001037,124.702057 C41.9432375,125.95677 44.8812802,128.352131 47.1118732,131.681098 C49.0795886,134.618506 50.5370125,137.81232 52.0582227,140.979296 C53.304958,143.573072 54.2835001,146.258867 54.951325,149.052017 C55.1151402,149.734968 55.1103079,150.45626 55.2456125,151.148317 C55.3717357,151.797241 55.5804914,152.430348 55.7525215,153.068248 C55.2485119,153.073041 54.5091689,152.881335 54.2791511,153.746886 C54.1235508,154.332067 54.36275,154.761008 54.9817685,155.081157 C54.4391004,155.461692 54.4705104,155.993675 54.526082,156.557289 C54.7478849,158.804079 54.7488513,161.040803 54.3202257,163.276569 C54.0848923,164.504443 54.0766774,165.750529 54.6647692,166.92856 C54.7150252,167.029685 54.5913181,167.26692 54.4850073,167.386257 C53.7910881,168.16554 53.2605007,169.024381 53.0396643,170.055278 C52.7975657,171.185861 53.1996137,172.205255 53.6330716,173.199728 C54.293648,174.71516 54.970171,176.227238 55.7191786,177.700974 C56.228987,178.704074 56.2072416,179.692795 55.9404982,180.722254 C55.3427419,183.027034 54.0742612,184.979076 52.6313343,186.83143 C49.9938611,190.216471 46.8214515,193.066174 43.4741124,195.73184 C42.1510267,196.785262 40.773336,197.772066 39.4468677,198.820696 C39.118754,199.079978 38.8906691,199.464347 38.6041133,199.807021 C37.7507279,199.29325 37.2182077,199.383352 36.5136573,200.28293 C35.9680898,200.977863 35.4408851,201.688132 34.9257612,202.406069 C34.5319281,202.954347 34.0076228,203.283122 33.3436638,203.344468 C31.3213433,203.530901 29.2941905,203.713501 27.2733197,203.360283 C26.702141,203.260596 26.1256467,203.094292 25.6032743,202.850347 C25.267429,202.692189 25.0185652,202.344244 24.7450566,202.067229 C24.590906,201.911469 24.4754139,201.718325 24.3251291,201.557772 C24.0743324,201.290822 23.8356164,201.358877 23.6718012,201.645477 C23.5476109,201.861625 23.4572467,202.102695 23.3900777,202.343285 C23.288116,202.710881 23.0904746,202.766955 22.7551125,202.624134 C21.3730727,202.036556 20.2287824,201.124997 19.199501,200.061031 C18.3925057,199.227112 17.4990121,198.587774 16.2619415,198.645764 C15.6588696,198.67452 15.0785095,198.824051 14.6566491,199.261139 C14.3468982,199.582246 14.0559933,199.549177 13.7849009,199.32584 C13.117076,198.775166 12.4159083,198.242704 11.845696,197.600011 C10.4414276,196.01844 9.1400873,194.346767 7.72953686,192.771427 C6.27404596,191.145285 4.70499585,189.628415 2.79478486,188.509813 C2.75419348,188.485849 2.71795118,188.454697 2.60245904,188.372264 C2.96488207,188.112503 3.26061926,187.906899 3.54959123,187.692668 C4.23287945,187.184648 4.41892327,186.634932 3.93327641,185.945272 C3.48822093,185.313602 2.86292039,184.805582 2.31445353,184.245802 C2.24970062,184.180622 2.16803463,184.131737 2.03611265,184.030133 C2.20669309,183.961119 2.33233307,183.92134 2.44734198,183.861911 C2.89481362,183.630906 3.36258094,183.427698 3.77767612,183.148288 C4.14299854,182.902425 4.24254406,182.531954 4.14686438,182.067068 C3.54572538,179.143559 2.90544469,176.225321 2.4067506,173.284078 C1.88631113,170.213914 1.58042609,167.116911 1.68045484,163.990193 C1.73119407,162.405747 2.10908048,160.883125 2.37872322,159.336541 C2.56428381,158.276409 2.63870134,157.190876 2.6821921,156.11397 C2.71650148,155.260881 2.24921739,154.697746 1.40501334,154.459072 C1.21268752,154.404436 1.03244246,154.308104 0.837700488,154.227588 C1.21172106,153.57483 1.57559378,152.967124 1.91095589,152.344081 C2.09699972,151.998531 2.23472047,151.62806 2.39563629,151.269571 C2.62372119,150.762989 2.51112843,150.344112 2.12792648,149.940572 C1.78724883,149.581843 1.47293746,149.198582 1.15645154,148.817275 L0.885700488,148.494972 L1.39731744,148.348298 C1.51035763,148.313684 1.62230608,148.276408 1.73216053,148.233914 C3.06346113,147.716788 3.90621549,146.552177 3.88012103,145.134035 C3.86030857,144.067673 3.71968844,143.004186 3.64382122,141.938783 C3.61241122,141.500735 3.57713538,141.058854 3.60371307,140.621765 C3.63270691,140.146815 3.81005258,139.795035 4.28071929,139.488306 C5.25587886,138.851844 6.15903706,138.0994 7.04963125,137.346955 C7.60003103,136.88159 7.87402284,136.278676 7.80443762,135.503706 C7.7536984,134.939133 7.8875533,134.357786 8.03203928,133.791296 C8.0842282,134.034763 8.1156382,134.284459 8.19343834,134.519298 C8.32246094,134.907023 8.55296199,134.955428 8.79457734,134.625216 C9.00719886,134.335261 9.17198053,134.007444 9.33289635,133.683941 C12.0766803,128.179596 16.4417033,124.778739 22.5632699,123.672598 C27.8271021,122.72078 33.0121676,123.040928 38.1001037,124.702057 Z M18.7341498,164.858619 C18.5186289,165.004795 18.3205043,165.409293 18.3702771,165.63934 C18.4186001,165.861239 18.7757076,166.119083 19.0366522,166.17324 C19.668718,166.304558 20.3234956,166.325646 21.0401267,166.398015 C21.560083,166.344817 22.1481748,166.321812 22.7208031,166.214457 C23.2499408,166.115249 23.5195835,165.751967 23.5524432,165.255929 C23.5843364,164.770914 23.3074452,164.301235 22.8092344,164.170876 C21.3532602,163.788902 19.9741198,164.015594 18.7341498,164.858619 Z M21.8403568,149.633364 C19.4401499,149.818839 15.7932077,152.276025 15.5641563,155.699407 C15.5453103,155.981694 15.4868394,156.260625 15.4583288,156.542432 C15.3283398,157.824942 15.1804712,159.106494 15.0833418,160.391401 C15.02922,161.112693 15.3278565,161.748676 15.9207806,162.154133 C16.3948299,162.478116 16.937498,162.759923 17.4907972,162.90466 C19.2033668,163.351334 20.9502458,163.365233 22.6811782,163.02208 C24.7131634,162.61854 25.5897439,161.604897 25.62357,159.719473 C26.9311923,159.590551 27.1882711,159.279029 27.0500671,158.022878 C27.0433018,157.961053 27.0283217,157.89827 27.0307378,157.835966 C27.0500671,157.361974 27.3665832,157.189439 27.772497,157.44872 C27.9145668,157.53978 28.0363409,157.674454 28.1392691,157.810565 C28.4248584,158.187266 28.6751719,158.593202 28.9771911,158.956005 C29.6276197,159.736247 30.3094582,159.686403 30.8434281,158.830438 C30.9579538,158.64688 31.0898758,158.426419 31.0831106,158.227524 C31.0739292,157.966805 31.0159415,157.612149 30.8385958,157.468849 C30.0151707,156.805069 29.4497908,155.956293 28.9757414,155.04617 C27.9227817,153.026552 26.4566598,151.392742 24.4850785,150.224776 C23.6761503,149.745033 22.7986033,149.559078 21.8403568,149.633364 Z M10.4293468,152.184486 C10.3133715,152.538183 10.2756795,152.91728 10.2027116,153.285834 C10.2669813,154.919166 10.9956932,156.125473 12.4275058,156.903318 C13.0513567,157.242158 13.5534334,157.042305 13.768471,156.369418 C13.8622178,156.076109 13.9173061,155.748292 13.8931446,155.443959 C13.7771692,153.974536 12.9827379,152.861686 11.9128651,151.914181 C11.778527,151.795324 11.5789527,151.733498 11.3987076,151.684134 C10.9241751,151.553295 10.5830142,151.713369 10.4293468,152.184486 Z M25.0362997,154.854609 C25.0416153,154.972508 25.0991197,155.131623 25.0435482,155.202075 C24.766657,155.551458 24.511028,155.950206 24.1534372,156.196068 C23.4401887,156.685397 22.5752057,156.794669 21.7387334,156.76112 C20.9752289,156.730927 20.2015765,156.582355 19.4641664,156.374354 C18.8267851,156.193672 18.3319569,155.761376 18.1275503,155.04919 C18.8011739,154.731917 19.1191397,154.831125 19.4105278,155.427329 C19.6980501,156.014907 20.2223554,156.197985 20.8191453,156.22099 C21.7541968,156.257414 22.5824542,155.886943 23.4000806,155.497781 C23.828223,155.293614 24.2491169,155.073632 24.6816084,154.879051 C24.7826036,154.833521 24.9169418,154.86036 25.0362997,154.854609 Z M25.468453,137.876063 C23.9428936,138.018883 22.4429455,138.410442 20.9198023,138.594479 C19.4464319,138.773245 17.9416514,138.968305 16.5808738,138.083584 C16.4909928,138.025114 16.3745342,138.002109 16.267257,137.976229 C15.7361865,137.849703 15.590734,138.025114 15.6820646,138.564285 C15.7661468,139.059844 15.7758114,139.567864 15.8178525,140.069653 L15.5849353,140.14969 C15.3529845,139.897598 15.1418127,139.6225 14.884734,139.398205 C14.5000823,139.062241 14.2782794,139.1279 14.0390802,139.571219 C13.8675333,139.889929 13.6810063,140.202409 13.4819152,140.504825 C12.7275921,141.651224 11.9413757,142.777494 11.2136303,143.939709 C10.3128882,145.378939 10.8236631,146.714647 12.4545667,147.247109 C13.6756907,147.646336 14.9166272,147.518373 16.1126232,147.189598 C19.1946687,146.34178 22.328903,146.206148 25.4993797,146.314941 C27.6241452,146.38731 29.7556758,146.376766 31.8572462,145.999106 L32.4248297,145.897034 C33.3713019,145.722824 34.3124609,145.507621 35.1311342,144.943288 C35.8564635,144.443416 36.1352876,143.686658 35.9294314,142.838361 C35.6071165,141.505528 34.8697064,140.440124 33.714785,139.710205 C31.1961866,138.119049 28.4002137,137.602403 25.468453,137.876063 Z" id="BAPE"></path>
                    </g>
                </g>
            </g>
        </g>
    </g>
</svg>
