<?xml version="1.0" encoding="UTF-8"?>
<svg width="56px" height="66px" viewBox="0 0 56 66" version="1.1" xmlns="http://www.w3.org/2000/svg" xmlns:xlink="http://www.w3.org/1999/xlink">
    <!-- Generator: Sketch 63.1 (92452) - https://sketch.com -->
    <title>chinatownmarket</title>
    <desc>Created with Sketch.</desc>
    <g id="MSCHFX" stroke="none" stroke-width="1" fill="none" fill-rule="evenodd">
        <g id="Desktop-|-Launch-State" transform="translate(-1076.000000, -380.000000)" fill="#010202">
            <g id="HOMEPAGE" transform="translate(161.000000, 52.000000)">
                <g id="SHIRT-PIECE-MODAL" transform="translate(538.000000, 56.000000)">
                    <g id="BrandLogos" transform="translate(375.699984, 19.549999)">
                        <path d="M41.309776,307.894016 C41.5455787,308.70261 41.7613234,309.52047 41.9168945,310.347109 C41.9526074,310.535358 41.7637695,310.8626 41.5842268,310.970868 C41.3171142,311.131806 41.1219166,310.866501 40.9653671,310.654355 C40.7246722,310.328577 40.4937617,309.994507 40.239858,309.679946 C40.127338,309.540465 39.9815513,309.415616 39.8274479,309.324418 C39.5887099,309.182987 39.3553533,309.246387 39.3352954,309.534125 C39.296158,310.100336 39.3093669,310.670937 39.3167052,311.239586 C39.3171944,311.307863 39.4062319,311.42052 39.4673841,311.430274 C39.5300039,311.440028 39.609257,311.349317 39.6792151,311.30006 C39.6934024,311.290306 39.6982946,311.269335 39.7085681,311.253242 C40.1307626,310.624118 40.3768388,310.616315 40.7046143,311.308838 C40.9942309,311.919917 41.1830687,312.577814 41.4115332,313.217179 C41.4355048,313.284481 41.4330587,313.362512 41.435994,313.435665 C41.4452891,313.70097 41.4443107,314.017483 41.1390392,314.068203 C40.9497121,314.099415 40.6953192,313.955058 40.5240932,313.820943 C40.325471,313.666344 40.206102,313.412744 40.0133504,313.246441 C39.8602255,313.114764 39.6488836,313.049413 39.4629811,312.954313 C39.4037858,313.137685 39.3054532,313.318132 39.2932227,313.503942 C39.2672942,313.907264 39.2853953,314.313024 39.2858845,314.717809 C39.2858845,315.141126 39.273654,315.564931 39.289309,315.98776 C39.3098561,316.530074 39.5779471,316.698816 40.0402574,316.413028 C40.343572,316.224779 40.5906267,315.936065 40.8342569,315.666371 C40.9795544,315.505432 41.0382604,315.261099 41.1938315,315.115766 C41.3376614,314.982138 41.5896082,314.828028 41.7383302,314.870945 C41.8939013,314.917275 42.0176732,315.174777 42.0881205,315.364977 C42.1414452,315.508846 42.1179628,315.698559 42.0783362,315.855108 C41.9129808,316.514956 41.7530068,317.17773 41.5431326,317.823923 C41.366036,318.369651 41.186004,318.411592 40.6278072,318.22822 C40.3699898,318.143849 40.0886899,318.101907 39.8166851,318.095567 C39.0970466,318.077523 38.3769189,318.093129 37.6567912,318.087764 C37.0604681,318.083212 36.8685732,317.823335 37.0353651,317.318838 L37.0765797,317.206992 C37.2027977,316.894381 37.3016196,316.545193 37.3045549,316.211611 C37.3246128,314.040404 37.3241236,311.868709 37.3050441,309.697502 C37.3021088,309.362945 37.2101359,309.01327 37.0858748,308.699196 C36.8451799,308.092506 37.0222765,307.796965 37.6915257,307.792088 C38.2820108,307.787211 38.8739636,307.813546 39.4629811,307.782334 C39.8421244,307.761851 40.2256707,307.693086 40.5916051,307.590671 C40.9399278,307.493132 41.212911,307.563848 41.309776,307.894016 Z M10.9701894,307.79555 C11.4134201,307.813107 11.6379708,308.109137 11.4315212,308.498315 C11.214798,308.907002 11.2906266,309.271796 11.3821102,309.667314 C11.5435519,310.365202 11.6917847,311.066504 11.8522479,311.764392 C11.8713274,311.848275 11.9285658,311.92338 11.9686816,312.002386 C12.0039053,311.933134 12.0547839,311.867295 12.0719065,311.794141 C12.2705286,310.934339 12.4769783,310.076488 12.6477151,309.211809 C12.6824495,309.037216 12.6027071,308.824582 12.5307922,308.648037 C12.3023278,308.087191 12.4789352,307.79994 13.0850753,307.791649 C13.4911255,307.786284 13.897665,307.781407 14.3032261,307.794087 C14.7758099,307.807743 15.0111233,308.062318 14.7973354,308.462226 C14.4323794,309.144508 14.6065407,309.834105 14.6373614,310.514436 C14.7097655,312.127723 14.8232639,313.740034 14.9573094,315.349907 C15.012591,316.014632 14.9431221,316.698377 15.3252008,317.328476 C15.5683417,317.730334 15.2958477,318.076108 14.807609,318.08635 C14.3281761,318.097079 13.8477649,318.098055 13.368332,318.08635 C12.8859639,318.074645 12.6467367,317.78837 12.8693305,317.367491 C13.4011096,316.361382 12.9368425,315.353321 12.9666847,314.34965 C12.9681524,314.310147 12.9202091,314.269668 12.895259,314.22919 C12.8624814,314.29259 12.816495,314.352088 12.7993724,314.418902 C12.589009,315.238226 12.3972359,316.062426 12.167793,316.876385 C12.1041948,317.102674 11.9544943,317.458202 11.8077292,317.47771 C11.4452192,317.525991 11.4520683,317.135837 11.3830887,316.885163 C11.1521782,316.052672 10.9383902,315.215792 10.7094366,314.382813 C10.6722561,314.249673 10.5900676,314.128238 10.5284262,314.001438 C10.5078791,314.125311 10.4790153,314.24821 10.4687417,314.373059 C10.4320505,314.830027 10.401719,315.28797 10.3640493,315.814678 C10.3968268,316.260917 10.2265792,316.774945 10.5783264,317.284096 C10.8444605,317.669373 10.5925137,318.144873 10.0803033,318.095128 C9.75154934,318.062453 9.41643557,318.09903 9.08474632,318.084887 C8.6459185,318.066355 8.39348243,317.753744 8.6116733,317.38456 C9.13758177,316.496472 8.9448302,315.5206 9.03533538,314.587644 C9.17867602,313.10896 9.23395756,311.620523 9.3034264,310.135499 C9.32788726,309.612205 9.38806097,309.092813 9.10725031,308.577322 C8.85823876,308.120841 9.11165326,307.802866 9.64147548,307.793112 C10.084217,307.784821 10.5274478,307.777994 10.9701894,307.79555 Z M26.0384212,307.909329 C27.5055835,308.384829 28.1890199,309.574799 28.4042755,311.030561 C28.5598466,312.083002 28.4199304,313.085697 27.6151682,313.897705 C27.5320013,313.982076 27.4884609,314.171789 27.5173247,314.291273 C27.7545951,315.268609 27.8177041,316.287886 28.3250223,317.199384 C28.628337,317.744624 28.3876421,318.078693 27.7687824,318.087472 C27.3813224,318.092836 26.9933731,318.097713 26.6059131,318.086496 C26.1230558,318.072353 25.8593677,317.788516 26.0633713,317.382268 C26.3573908,316.798013 26.1621931,316.274719 26.0486947,315.726552 C25.981672,315.402724 25.9043757,315.080847 25.8143597,314.762384 C25.7962587,314.698984 25.697926,314.658018 25.6362847,314.605835 C25.6064424,314.667772 25.5536069,314.729221 25.5516501,314.791646 C25.5433334,315.122789 25.5477363,315.453444 25.5477363,315.784588 C25.5536069,316.329828 25.4983254,316.866777 25.8065322,317.386658 C26.0242339,317.755353 25.7762008,318.072353 25.3378622,318.085033 C24.8398391,318.099664 24.3413268,318.094787 23.8428144,318.087472 C23.2870637,318.079181 23.0414767,317.748038 23.3105461,317.263759 C23.5615146,316.813131 23.5722773,316.358114 23.5717881,315.879688 C23.5698313,313.837719 23.5820617,311.795263 23.5605361,309.753294 C23.5571116,309.399717 23.4568221,309.03151 23.328158,308.698416 C23.1133916,308.142446 23.2748333,307.720592 23.8550449,307.712301 C24.5849569,307.702547 25.3588985,307.68938 26.0384212,307.909329 Z M32.0484054,307.792624 C32.6271493,307.803841 32.8384912,308.113526 32.5615942,308.615362 C32.344871,309.009417 32.2905679,309.409325 32.3101366,309.836544 C32.3130719,309.902382 32.3522093,309.96627 32.3747133,310.031133 C32.4324409,309.996507 32.5082696,309.975048 32.5454501,309.925304 C32.7328203,309.67463 32.9451405,309.433222 33.0786968,309.155237 C33.1511009,309.004052 33.1271293,308.771911 33.0718478,308.600731 C32.889859,308.038421 33.038581,307.800915 33.6271093,307.792137 C33.995979,307.786284 34.365338,307.790186 34.734697,307.790674 C34.9744134,307.791161 35.2307632,307.758486 35.3379018,308.055491 C35.4523786,308.372978 35.3295851,308.609509 35.1089481,308.847015 C34.7483951,309.235219 34.4000724,309.63854 34.0903979,310.06771 C33.9793456,310.220845 33.9269994,310.479322 33.9641799,310.667572 C34.3281575,312.526655 34.7082793,314.382325 35.1055236,316.235069 C35.1735248,316.551582 35.3193115,316.859316 35.4709688,317.148517 C35.7816218,317.743014 35.606482,318.079035 34.9475065,318.087813 C34.4861747,318.094153 34.0243536,318.098055 33.5630218,318.085862 C33.0752723,318.07367 32.8257715,317.738137 33.0605958,317.315308 C33.29542,316.893454 33.2225267,316.515492 33.1325107,316.096565 C32.8976864,314.999744 32.6868338,313.897559 32.4627724,312.7983 C32.4490743,312.732949 32.4060232,312.673451 32.3761809,312.611026 L32.322367,312.735153 C32.3151375,312.755817 32.3102997,312.776517 32.3101366,312.797325 C32.3052444,313.423522 32.3072013,314.049719 32.3072013,314.675429 L32.304266,314.675429 C32.304266,315.172387 32.2734453,315.671784 32.3145396,316.165817 C32.3443818,316.521345 32.4275487,316.886139 32.561105,317.21777 C32.7856557,317.776178 32.6251925,318.077084 32.024923,318.087325 C31.5450009,318.095616 31.0641004,318.099518 30.5846676,318.085375 C30.0797954,318.071231 29.8537771,317.758133 30.0895798,317.32116 C30.35816,316.822251 30.3816424,316.308711 30.3801748,315.771761 C30.3752826,313.820504 30.3762611,311.869246 30.3796856,309.917988 C30.380664,309.47175 30.335656,309.052822 30.112573,308.641697 C29.8322515,308.125231 30.0612052,307.800915 30.6634315,307.792137 C31.1247634,307.784821 31.5865844,307.78287 32.0484054,307.792624 Z M48.4464763,307.973412 C48.7170134,308.877594 48.8769874,309.800796 48.7957774,310.745944 C48.7815901,310.909808 48.5878601,311.185842 48.4782754,311.185355 C48.3036249,311.184867 48.0746712,311.031732 47.9694896,310.875182 C47.8080479,310.636213 47.7351545,310.338721 47.6177424,310.068539 C47.544849,309.900285 47.474891,309.727154 47.373623,309.575969 C47.3090463,309.479894 47.1896774,309.41942 47.0952584,309.342852 C47.0575887,309.455022 46.9876307,309.567679 46.9866522,309.679848 C46.9788247,310.839093 46.98176,311.998338 46.98176,313.157583 C46.98176,314.18759 46.963659,315.219059 46.9920336,316.248578 C47.0013287,316.583623 47.0933016,316.929397 47.2126706,317.245909 C47.4166741,317.785297 47.2615923,318.074011 46.6906758,318.086204 C46.2107538,318.097421 45.7308317,318.098396 45.2509096,318.085716 C44.7533758,318.073036 44.5170839,317.754573 44.7548434,317.319551 C44.9795776,316.909036 45.0057965,316.492173 45.0088398,316.062428 L45.0092364,315.877444 C45.0082579,313.872053 45.0111932,311.866661 45.0043442,309.860782 C45.003855,309.688139 44.9407459,309.515008 44.9065007,309.342365 C44.7822396,309.480869 44.6237332,309.601817 44.5415447,309.761293 C44.3742324,310.087559 44.2749214,310.449914 44.093911,310.766915 C44.0087872,310.915661 43.7847257,311.095132 43.650191,311.076112 C43.5117425,311.056116 43.3361136,310.826413 43.3008899,310.662061 C43.2451192,310.402121 43.2646879,310.115845 43.3028468,309.847614 C43.3845461,309.266285 43.4657561,308.681054 43.6090968,308.112892 C43.7314011,307.628126 43.9050732,307.572529 44.384506,307.687136 C44.6149273,307.742246 44.8561114,307.794429 45.0889788,307.7837 C46.0238728,307.741758 46.9685512,307.922692 47.8941501,307.63983 C48.159795,307.558386 48.3672231,307.706644 48.4464763,307.973412 Z M19.215358,307.790966 C19.7456694,307.800232 19.8136706,307.850952 19.9164062,308.365956 C20.2940819,310.259178 20.6678438,312.153376 21.0435626,314.046598 C21.1648885,314.659627 21.2627319,315.278997 21.4168353,315.884223 C21.5190817,316.287057 21.7005813,316.670384 21.8502818,317.061025 C21.902628,317.197579 21.9901979,317.324867 22.0185725,317.465322 C22.0919551,317.830116 21.9016496,318.067135 21.5239739,318.085179 C21.2294652,318.098835 20.9334888,318.087618 20.6384908,318.088106 C20.3615939,318.088106 20.0842077,318.097372 19.8078,318.086643 C19.3513604,318.068598 19.1517598,317.771593 19.300971,317.346813 C19.3127122,317.312675 19.3278779,317.278048 19.345979,317.246348 C19.465348,317.027862 19.7383312,316.765971 19.4912765,316.566505 C19.2985249,316.410931 18.9477562,316.395813 18.6718377,316.408493 C18.3161768,316.425562 18.2398589,316.65429 18.3905378,316.995674 C18.4834891,317.207333 18.5686129,317.433622 18.5950306,317.659912 C18.6248728,317.917901 18.4639204,318.077864 18.1968078,318.082741 C17.735476,318.091032 17.2731658,318.104199 16.8128124,318.080303 C16.460576,318.062258 16.2433636,317.740869 16.408719,317.405336 C17.3607356,315.473586 17.2374529,313.32335 17.6850866,311.290648 C17.8939824,310.34111 17.9942719,309.368164 18.1547351,308.407409 C18.2432834,307.877288 18.3455298,307.80072 18.8831795,307.790966 C18.9937426,307.789015 19.1047949,307.788528 19.215358,307.790966 Z M18.8445314,313.143879 C18.8156675,313.207279 18.771638,313.267753 18.7594076,313.334079 C18.6948309,313.691558 18.6375925,314.050012 18.562253,314.500152 C18.596009,314.568429 18.6390601,314.724003 18.7383712,314.823492 C18.7902283,314.875187 19.0123329,314.862507 19.0363045,314.816177 C19.1038165,314.685963 19.147846,314.518684 19.1307234,314.374327 C19.0906076,314.032455 19.0128221,313.694972 18.9418856,313.357001 C18.9267198,313.282384 18.8782873,313.214594 18.8445314,313.143879 Z M25.6793358,309.090033 C25.6338386,309.235365 25.5501824,309.380697 25.5482256,309.527005 C25.5364843,310.570667 25.5340383,311.613841 25.5496932,312.657503 C25.5521393,312.811126 25.6671053,312.964262 25.7297251,313.11691 C25.8887207,313.016445 26.134797,312.949143 26.1891001,312.808688 C26.3388005,312.422923 26.4072909,312.005946 26.5232354,311.5402 C26.3705997,310.861332 26.2262806,310.147838 26.0393996,309.445073 C26.0022191,309.304617 25.8035969,309.207079 25.6793358,309.090033 Z M29.130127,268.343772 C38.926212,268.398189 47.0819517,276.396834 46.9312728,286.508651 C46.7859753,296.269816 38.7251437,304.118739 29.0303267,304.056802 C19.2606595,304.156291 10.9464134,296.080591 11.0902433,285.939513 C11.2267349,276.281739 19.1789602,268.288946 29.130127,268.343772 Z M29.0763131,269.459822 C19.7992876,269.432585 12.4933181,276.927444 12.2364791,285.65909 C11.9586038,295.106182 19.5424486,302.792216 28.7235876,302.926331 C38.4076418,303.067762 45.8667362,295.165192 45.7723173,286.231641 C45.8960893,277.137151 38.3367053,269.488182 29.0763131,269.459822 Z M18.0854131,285.703031 C18.0506786,285.843974 17.9953971,285.989307 17.9136978,286.107816 C17.5213456,286.67549 17.5996204,287.253406 17.8589055,287.834735 C18.6881286,289.694794 19.740924,291.416349 21.0887174,292.952093 C22.4047116,294.451259 23.9154143,295.695363 25.7793318,296.464942 C26.9133372,296.933614 28.090883,297.218914 29.3286025,297.221353 C31.4425099,297.216964 33.2961538,296.472257 34.9575354,295.217424 C36.9241885,293.731425 38.3394938,291.802114 39.4226207,289.609936 C39.8462828,288.75306 40.0351206,287.881066 39.7503962,286.942746 C39.7024529,286.785221 39.6686969,286.620381 39.6540204,286.456516 C39.6285811,286.175605 39.6187968,285.87031 39.9490184,285.759116 C40.2508654,285.657676 40.4886249,285.804471 40.6432176,286.072702 C40.8090622,286.358978 41.0218717,286.632086 41.1197151,286.940795 C41.423519,287.902037 41.6876963,288.875959 41.9548088,289.84793 C41.99786,290.003504 42.0193855,290.189315 41.9748667,290.338061 C41.9269235,290.497049 41.8134251,290.713584 41.6837825,290.750649 C41.5213624,290.797467 41.3075745,290.703343 41.128521,290.637016 C41.0570953,290.610193 41.0120873,290.499975 40.9661009,290.421944 C40.628541,289.850856 40.603591,289.836225 40.2714125,290.458521 C39.5400328,291.825523 38.7298891,293.138391 37.7416704,294.336652 C36.2989689,296.085029 34.609702,297.515919 32.4224119,298.241606 C29.4538421,299.225281 26.633505,298.824886 23.9887969,297.190628 C22.0255683,295.976762 20.5001891,294.307878 19.227246,292.413192 C18.4792329,291.299303 17.8290632,290.120062 17.1353533,288.970571 C17.0971943,288.907659 17.0600138,288.843771 17.0218549,288.780859 C16.7229432,288.287802 16.7430011,288.30292 16.4152256,288.741356 C16.2909644,288.908146 16.0502696,289.086642 15.8628994,289.086154 C15.5429513,289.085667 15.4788639,288.767691 15.4910943,288.506288 C15.551268,287.195858 15.9357927,286.045391 17.1519867,285.335799 C17.2919028,285.253867 17.4479631,285.173397 17.6045126,285.15389 C17.9489215,285.110485 18.1671123,285.367499 18.0854131,285.703031 Z M33.7427602,276.001998 C34.2554598,276.063448 34.5935089,276.286811 34.744677,276.655019 C35.0000484,277.279265 35.2720531,277.920581 35.3738103,278.578966 C35.5978718,280.024974 35.5538422,281.47147 34.9868395,282.857004 C34.9115001,283.042327 34.8161027,283.225212 34.6991798,283.387126 C34.1302202,284.170848 33.3484512,284.15134 32.9252783,283.271055 C32.6195176,282.636079 32.4081757,281.928925 32.2990803,281.232013 C32.1048611,279.987909 32.1449769,278.73015 32.5613007,277.524574 C32.7080659,277.10077 32.9580558,276.701349 33.219787,276.332654 C33.343559,276.158548 33.6067578,276.083443 33.7427602,276.001998 Z M24.5444497,276.473938 C24.9734932,277.050391 25.1642879,277.719993 25.2841461,278.414467 C25.5121213,279.736601 25.479833,281.05142 25.092373,282.337465 C24.9671334,282.752979 24.7665543,283.164104 24.5185212,283.52012 C24.1286151,284.081454 23.5195397,284.089745 23.065057,283.576692 C22.5836672,283.03389 22.3840666,282.359899 22.2735036,281.66445 C22.1839768,281.103603 22.1467963,280.534466 22.0866226,279.969231 C22.1296737,278.945076 22.2343662,277.943844 22.6785754,277.008449 C22.7798433,276.794352 22.90068,276.580743 23.0542942,276.402735 C23.5151368,275.868712 24.1198092,275.90285 24.5444497,276.473938 Z M54.3137559,264.212812 C54.5172702,264.450319 54.7095326,264.698554 54.8924998,264.952154 C54.9756667,265.067737 55.02361,265.207705 55.0906328,265.342308 C55.0015952,265.527144 54.9296803,265.695885 54.8421104,265.855361 C54.4257866,266.613723 54.0035922,267.369158 53.588736,268.128496 C53.5491094,268.201162 53.5451957,268.294311 53.5251378,268.378194 C53.599988,268.337716 53.6816873,268.306503 53.7482208,268.255783 C53.9977216,268.066071 54.2633665,267.891965 54.4825358,267.67104 C54.74867,267.404272 55.0108904,267.11946 55.2085341,266.800509 C55.5328851,266.276239 55.8856107,266.225519 56.2833443,266.703946 C56.4594625,266.91658 56.6424297,267.124824 56.7994684,267.351601 C57.100337,267.786623 56.9839033,268.190432 56.480988,268.269926 C55.989814,268.347469 55.6414913,268.610336 55.278003,268.897587 C53.2976518,270.463567 51.3148545,272.026134 49.324719,273.579435 C48.7361907,274.038353 48.3942279,273.937889 48.0884672,273.272676 C47.9637168,273.000056 47.9827963,272.730362 48.2381676,272.587468 C49.0884271,272.11148 49.421584,271.25558 49.8613903,270.47576 C50.2141158,269.850538 50.5643954,269.223853 50.912718,268.59668 C50.9547907,268.521088 50.9787623,268.435254 51.0110506,268.353809 C50.9342435,268.38112 50.8432492,268.391362 50.782097,268.439156 C49.8829158,269.143384 48.9798209,269.84371 48.0977623,270.568909 C47.9231118,270.71229 47.8149948,270.94687 47.7049209,271.15414 C47.4319377,271.668655 47.0420316,271.728154 46.666802,271.289718 C46.4632877,271.052212 46.2627086,270.809341 46.0905042,270.549889 C45.8224132,270.147542 45.9628185,269.766655 46.4388268,269.682772 C46.8801007,269.605228 47.2205959,269.390156 47.5576665,269.121925 C49.2307893,267.7915 50.9171209,266.477656 52.5829055,265.137965 C52.8456151,264.926794 53.0618491,264.635154 53.2355212,264.342539 C53.5574261,263.802175 53.9091733,263.740238 54.3137559,264.212812 Z M3.12417303,265.136648 C4.0199297,265.386835 4.84719596,265.782353 5.58738157,266.346613 C5.69990152,266.432447 5.79383122,266.564124 5.85155885,266.69385 C5.97582001,266.971348 5.83443625,267.235677 5.52916472,267.247869 C5.24003736,267.258598 4.94552862,267.200075 4.65737969,267.151306 C4.29535898,267.089857 3.93920886,266.969397 3.57572049,266.943061 C3.20978604,266.917214 3.1006906,267.119606 3.30762947,267.429291 C3.48961827,267.702399 3.69998166,267.975994 3.95633146,268.175948 C5.1754607,269.127436 6.40388505,270.068195 7.65383497,270.979205 C7.97231536,271.211346 8.37151658,271.353752 8.75457364,271.46836 C8.9042741,271.513715 9.18312789,271.422517 9.27265464,271.299618 C9.36413825,271.173306 9.37343338,270.874351 9.28243898,270.751452 C9.0466363,270.432501 8.74430008,270.159393 8.4517482,269.884335 C8.19735526,269.645366 7.88914843,269.456629 7.66655461,269.193275 C7.54816405,269.053795 7.4698893,268.759716 7.53984736,268.615359 C7.60882699,268.47344 7.88914843,268.355419 8.07407253,268.35932 C9.3313607,268.385168 11.0441101,270.171098 10.9961668,271.412763 C10.944799,272.747578 9.75746887,273.463998 8.76093346,273.342075 C7.76341962,273.373775 6.89359146,272.996788 6.08785075,272.510559 C4.53654305,271.574189 3.21272134,270.378367 2.3120725,268.786539 C2.036154,268.298847 1.85710051,267.743852 1.71278144,267.1991 C1.60075071,266.775783 1.74604821,266.369535 2.07480216,266.04083 C2.24064679,265.875502 2.42703854,265.690667 2.49601816,265.479496 C2.60951655,265.130796 2.81107403,265.048864 3.12417303,265.136648 Z M10.2947761,259.465857 C10.4205049,259.820898 10.5613995,260.194958 10.79231,260.484647 C12.1205347,262.153531 13.47958,263.798518 14.8229704,265.455697 C15.0798094,265.772209 15.3415406,266.048243 15.7451448,266.209669 C16.2563768,266.4145 16.2945357,266.822211 15.8767442,267.192857 C15.5607099,267.474256 15.2153226,267.722492 14.8978206,268.001939 C14.6338608,268.233864 14.3583047,268.308571 14.0505367,268.196604 L13.947401,268.151547 L13.9777091,268.253389 C14.045864,268.558083 13.9279204,268.798341 13.6596119,269.001221 C13.3078648,269.267989 12.9761755,269.562068 12.6234499,269.82786 C12.1836437,270.158516 11.7687875,270.032691 11.6821961,269.501594 C11.6161517,269.093395 11.4175296,268.791026 11.1714533,268.489144 C9.76446468,266.764176 8.36726039,265.031892 6.94901976,263.316677 C6.77094471,263.102093 6.50285369,262.946031 6.25090684,262.809965 C5.73625036,262.531493 5.65895404,262.172063 6.08946517,261.78386 C6.44365841,261.462958 6.81448504,261.15815 7.2004774,260.876752 C7.60016784,260.585112 8.02382993,260.698744 8.09329877,261.15815 C8.17744412,261.713145 8.51500398,262.083303 8.83397359,262.482723 C9.13239607,262.856296 9.44647351,263.217676 9.73462243,263.598564 C9.93275539,263.859967 10.0707146,263.692688 10.2341132,263.571253 C10.4087637,263.441527 10.5550397,263.332771 10.3525037,263.093314 C9.88921506,262.546123 9.46017159,261.969183 8.98416326,261.433697 C8.82223238,261.250812 8.56637179,261.146446 8.34426718,261.022572 C7.88097851,260.764095 7.81591262,260.402227 8.20679715,260.058892 C8.57958065,259.731162 8.96752988,259.417088 9.36966641,259.126423 C9.78647945,258.826005 10.1220824,258.981091 10.2947761,259.465857 Z M47.4245994,258.263354 C47.7890663,258.513053 48.1437487,258.780308 48.4813086,259.065121 C48.9127981,259.429427 48.8462646,259.889321 48.3086149,260.085373 C47.9637168,260.21071 47.7675407,260.428709 47.5919117,260.721812 C47.2142361,261.353861 46.8145456,261.972743 46.4261072,262.597965 C46.369358,262.689651 46.3272853,262.789628 46.2783636,262.885704 C46.3634874,262.832545 46.4579063,262.790116 46.5317781,262.724277 C47.0410532,262.271699 47.5376086,261.805465 48.0547112,261.36264 C48.4402143,261.031984 48.590404,261.035398 48.919158,261.302166 C49.2395952,261.562594 49.2826463,261.740602 49.0600525,262.170259 C48.7890262,262.692577 48.4896253,263.200753 48.2078362,263.717219 C48.1789724,263.76989 48.1863106,263.842069 48.1770155,263.904981 C48.2225127,263.876207 48.2777942,263.855724 48.3125286,263.817684 C48.8457754,263.233916 49.3892957,262.657951 49.8995492,262.054188 C50.0301702,261.900077 50.0673507,261.658182 50.1226322,261.450912 C50.2728219,260.885677 50.622123,260.74327 51.1035127,261.073926 C51.3613302,261.250958 51.6167015,261.435306 51.8510366,261.642088 C52.2340936,261.980546 52.1949562,262.420445 51.7165018,262.599428 C51.1426501,262.8145 50.793349,263.263665 50.4009968,263.667475 C48.732277,265.383177 47.0821474,267.116924 45.4178305,268.837503 C44.9990606,269.270574 44.7950571,269.284717 44.3665028,268.980397 C43.9183799,268.662909 43.8508679,268.449787 44.1121099,267.954292 C44.4721737,267.270547 44.8611014,266.602408 45.231928,265.924028 C45.2715546,265.851849 45.2710654,265.757725 45.2886772,265.673354 C45.2167623,265.72066 45.1370199,265.760651 45.0744001,265.818199 C44.5034836,266.339542 43.945776,266.875516 43.364586,267.385155 C42.9174415,267.776772 42.3675614,267.676795 42.0573977,267.169595 C42.0030946,267.080347 41.9903749,266.964764 41.9419424,266.807727 C42.0383182,266.605334 42.1322479,266.36734 42.2599336,266.148366 C43.5059698,264.020076 44.7647256,261.899589 46.0009774,259.765935 C46.2000888,259.422599 46.3375589,259.036347 46.4530141,258.654971 C46.6266862,258.079982 46.9378283,257.931235 47.4245994,258.263354 Z M11.2154829,264.727572 C11.0574657,264.87583 10.8490592,264.98166 11.0848619,265.252329 C11.4938474,265.721977 11.8808182,266.21162 12.2619184,266.70419 C12.681311,267.245972 13.105151,267.777274 13.7447831,268.059198 L13.929401,268.130547 L13.8806135,267.960759 C13.7995416,267.647292 13.7445726,267.315593 13.5676391,267.070934 C12.9879167,266.271119 12.3299196,265.527388 11.713506,264.75342 C11.5417907,264.538347 11.3945363,264.559318 11.2154829,264.727572 Z M15.2562211,256.91147 C15.3379204,257.149464 15.3936912,257.400138 15.5042543,257.623501 C16.5120417,259.649376 17.5212967,261.675251 18.5525665,263.688933 C18.6963964,263.970819 18.9346452,264.219055 19.17534,264.431689 C19.612211,264.817454 19.6127002,265.208095 19.1146771,265.481691 C18.695418,265.712857 18.2658853,265.927929 17.8285251,266.123494 C17.3295236,266.34637 17.0164246,266.116666 16.9660352,265.57484 C16.9347253,265.239795 16.8784653,264.884755 16.7331678,264.587263 C15.7787051,262.637468 14.8071198,260.695964 13.8144981,258.76519 C13.6447397,258.435022 13.3786056,258.138505 13.1051332,257.881003 C12.6888093,257.490361 12.7010398,257.116301 13.2132502,256.832952 C13.5840768,256.628121 13.9661554,256.442798 14.3492125,256.262352 C14.9979145,255.956081 15.3310714,256.17603 15.2562211,256.91147 Z M43.7550792,256.722929 C43.9253267,257.177946 43.9644641,257.68222 44.0398036,258.050915 C43.8299294,260.634222 43.0427789,262.854686 41.4268946,264.734253 C40.9308283,265.310218 40.2938676,265.725244 39.4612199,265.718976 C38.1153834,265.709638 37.1154235,264.807407 37.1119816,263.4604 C37.1105313,262.753734 37.2020149,262.022195 37.3991695,261.34479 C37.9358407,259.498874 38.8291513,257.834867 40.2596224,256.509807 C40.5913116,256.202561 40.9875775,255.936768 41.3990092,255.749494 C42.3588533,255.313009 43.385231,255.735351 43.7550792,256.722929 Z M23.2382888,254.145474 C23.0836961,254.704857 23.2353535,255.199865 23.3664637,255.712917 C23.9496106,257.994343 24.5371604,260.275768 25.1227534,262.557194 C25.1550417,262.682043 25.1912438,262.805917 25.2176615,262.931742 C25.3350736,263.49015 25.2274458,263.692542 24.7558405,263.807637 C24.1653553,263.952482 23.9036241,263.820317 23.7984424,263.233623 C23.7035343,262.70594 23.4628395,262.273845 23.1428914,261.859306 C22.5015277,261.028278 21.878265,260.183595 21.2442395,259.346226 C21.202656,259.291117 21.1341656,259.255516 21.0774164,259.210648 C21.0725243,259.2799 21.0485526,259.35403 21.0646968,259.417917 C21.3503996,260.541561 21.6287642,261.667643 21.9408848,262.783971 C22.0010585,262.999043 22.1923424,263.180953 22.3347046,263.369202 C22.6747106,263.817391 22.5807809,264.165116 22.0485126,264.335808 C21.7324783,264.437249 21.4095949,264.522595 21.0837763,264.584044 C20.6938702,264.657198 20.3382093,264.405548 20.4365419,264.05441 C20.684575,263.167297 20.3078778,262.383088 20.114637,261.575957 C19.7066299,259.876836 19.2585069,258.186494 18.7976644,256.500541 C18.7047131,256.159644 18.5202782,255.827037 18.3123609,255.53686 C17.9557216,255.040389 18.0501405,254.679009 18.6513884,254.521972 C20.0926223,254.147424 19.8362724,254.016723 20.7378997,255.197914 L21.432527,256.089843 L21.432527,256.089843 L22.120401,256.960547 L22.096126,256.786455 C21.9952592,256.057662 21.8906585,255.335972 21.3704575,254.735582 C20.995228,254.302511 21.1380794,253.905529 21.684535,253.739713 C21.9663241,253.654367 22.2539838,253.581701 22.5436004,253.526104 C23.0323283,253.432467 23.3640176,253.689481 23.2382888,254.145474 Z M41.6842228,257.394969 C41.4498878,257.648569 41.2321861,257.939721 41.0898239,258.25282 C40.3970924,259.776371 39.724908,261.308701 39.0620187,262.845908 C38.9622184,263.076586 38.9084045,263.34433 38.9093698,263.594516 C38.9103614,263.745701 39.0258166,263.977354 39.1486101,264.025636 C39.2762958,264.075868 39.5169907,263.995399 39.6309783,263.889082 C39.8154132,263.71839 39.9734303,263.49649 40.0781228,263.266299 C40.7992289,261.67447 41.5076154,260.077765 42.2086636,258.477158 C42.3177591,258.227948 42.3657024,257.951914 42.4576752,257.634913 C42.378422,257.499823 42.3143346,257.255489 42.2003469,257.229153 C42.0442867,257.193552 41.7952751,257.274509 41.6842228,257.394969 Z M34.4293765,253.283331 C34.6108761,253.367214 34.8031385,253.444757 34.9983361,253.479383 C35.9767705,253.655928 36.9596078,253.804186 37.9346177,253.996337 C38.0901887,254.026574 38.2756021,254.203607 38.3347973,254.355767 C38.4169858,254.570351 38.3939926,254.824927 38.4228564,255.133148 C38.365618,255.651078 38.3074012,256.235821 38.2325509,256.818126 C38.2115146,256.979552 38.171888,257.154634 38.0843181,257.285823 C38.0011512,257.410185 37.8309036,257.573562 37.721319,257.558931 C37.5735754,257.538448 37.3778885,257.389214 37.3260315,257.249734 C37.2188929,256.96102 37.2017703,256.640118 37.1303446,256.336286 C37.0716386,256.086587 36.9948315,255.841278 36.9106861,255.598895 C36.8911174,255.543298 36.8094182,255.47307 36.7585396,255.474533 C36.7086394,255.476484 36.640149,255.552564 36.617645,255.611087 C36.5706802,255.730084 36.5437732,255.856884 36.5168663,255.982709 C36.0775492,258.052476 35.6308939,260.12078 35.2106564,262.194448 C35.1470581,262.506084 35.1700514,262.847956 35.2150593,263.167395 C35.3084998,263.829193 35.0805246,264.076941 34.4332903,263.950141 C33.9988654,263.864795 33.5619945,263.785789 33.1344186,263.674107 C32.6251435,263.54048 32.5336599,263.196656 32.8076216,262.752856 C33.0052653,262.432442 33.1941031,262.081304 33.2758024,261.719436 C33.7381126,259.654546 34.1681346,257.582828 34.6074516,255.513549 C34.6304448,255.406256 34.6500135,255.296038 34.6519704,255.186795 C34.6549057,254.997082 34.5428749,254.933195 34.4205706,255.075113 C34.1813434,255.351635 33.9719585,255.654004 33.7562137,255.951009 C33.5644405,256.215338 33.4020204,256.605004 33.0033084,256.445529 C32.5972582,256.283127 32.7288576,255.851032 32.8188736,255.566707 C33.0414674,254.867844 33.3124937,254.180685 33.6207005,253.514497 C33.8144305,253.095082 33.9969085,253.083865 34.4293765,253.283331 Z M29.047009,252.987106 C29.7245748,252.991496 29.7656691,253.027585 29.8928656,253.727424 C30.3356071,256.152231 30.765629,258.579964 31.2298961,261.00087 C31.3213797,261.477345 31.5097284,261.944555 31.7142211,262.388842 C31.9994348,263.009675 31.8198921,263.339843 31.1325419,263.350084 C30.9109265,263.353498 30.6893111,263.350572 30.4676958,263.350572 L30.4676958,263.348621 L29.9503939,263.353101 C29.8642735,263.35274 29.7782257,263.350897 29.6922865,263.346183 C29.1159887,263.315946 28.9100282,262.962369 29.1702918,262.453218 C29.2823225,262.233756 29.5773205,261.98991 29.3151001,261.782153 C29.1164779,261.625604 28.7725582,261.601707 28.4951721,261.608047 C28.1654397,261.614874 28.0519413,261.847991 28.1781593,262.147922 C28.2275703,262.265456 28.3249245,262.363482 28.3694432,262.481992 C28.5548565,262.975049 28.3581912,263.269615 27.8357073,263.281807 C27.4668375,263.290586 27.0969893,263.295463 26.7281196,263.280832 C26.2770613,263.263275 26.0368557,262.982364 26.2252043,262.590747 C27.1468895,260.677042 27.1282992,258.560456 27.5729977,256.544823 C27.7906993,255.558221 27.9325723,254.55455 28.1150503,253.559657 C28.2011525,253.088546 28.3009528,253.008077 28.7701121,252.988082 C28.8620849,252.983693 28.954547,252.986131 29.047009,252.987106 Z M28.7402699,258.337093 C28.7123845,258.378059 28.6678657,258.415612 28.6590598,258.460479 C28.5798066,258.875018 28.4981074,259.290044 28.4359768,259.707021 C28.4041777,259.917705 28.4893014,260.099614 28.7348885,260.040603 C28.8640418,260.009391 28.9653098,259.86162 29.044563,259.794806 C28.9462303,259.285167 28.8708909,258.888186 28.7926161,258.491692 C28.7818533,258.439021 28.7583709,258.388301 28.7402699,258.337093 Z" id="chinatownmarket"></path>
                    </g>
                </g>
            </g>
        </g>
    </g>
</svg>