<?xml version="1.0" encoding="UTF-8"?>
<svg width="57px" height="25px" viewBox="0 0 57 25" version="1.1" xmlns="http://www.w3.org/2000/svg" xmlns:xlink="http://www.w3.org/1999/xlink">
    <!-- Generator: Sketch 63.1 (92452) - https://sketch.com -->
    <title>kith</title>
    <desc>Created with Sketch.</desc>
    <g id="MSCHFX" stroke="none" stroke-width="1" fill="none" fill-rule="evenodd">
        <g id="Desktop-|-Launch-State" transform="translate(-1075.000000, -351.000000)" fill="#010202">
            <g id="HOMEPAGE" transform="translate(161.000000, 52.000000)">
                <g id="SHIRT-PIECE-MODAL" transform="translate(538.000000, 56.000000)">
                    <g id="BrandLogos" transform="translate(375.699984, 19.549999)">
                        <path d="M44.1172464,230.801534 L44.1172464,233.941574 L49.6673011,233.941574 L49.6673011,227.661992 L53.0348767,227.661992 L53.0348767,243.962884 L49.6050566,243.962884 L49.6050566,237.112521 L44.1172464,237.112521 L44.1172464,243.962884 L40.7496709,243.962884 L40.7496709,227.661992 L44.1172464,227.661992 L44.1172464,230.801534 Z M38.0055207,229.120598 L38.0055207,230.579702 L33.8895406,230.579702 L33.8895406,243.962884 L30.5224551,243.962884 L30.5224551,230.579702 L26.4687195,230.579702 L26.4687195,227.661992 L38.0055207,227.661992 L38.0055207,229.120598 Z M23.8495485,235.812438 L23.8495485,243.962884 L20.481973,243.962884 L20.481973,227.661992 L23.8495485,227.661992 L23.8495485,235.812438 Z M8.13452264,230.928651 C8.13452264,232.723244 8.15314698,234.19531 8.18402419,234.19531 C8.2153915,234.19531 9.31912898,232.723244 10.6537103,230.928651 L13.0792861,227.661992 L15.0064157,227.661992 C16.0601615,227.661992 16.9271737,227.674953 16.9271737,227.693896 C16.9271737,227.712839 15.9047952,229.101655 14.6574543,230.782591 L12.3813633,233.839881 L12.4808565,234.030307 C12.5367296,234.137982 13.7154545,236.402161 15.1000275,239.066136 C16.4846005,241.730609 17.6133338,243.918518 17.6133338,243.931479 C17.6133338,243.943941 16.7649459,243.956902 15.7298244,243.950422 L13.8526865,243.931479 L11.9755486,240.271505 C10.9404272,238.254581 10.0797864,236.611531 10.0611621,236.624492 C10.0425377,236.636954 9.593593,237.176329 9.08240375,237.842323 L8.14040401,239.047193 L8.13452264,241.502297 L8.13452264,243.962884 L4.76645696,243.962884 L4.76645696,227.661992 L8.13452264,227.661992 L8.13452264,230.928651 Z M0.837700488,235.812438 L0.837700488,247.959344 L56.9636332,247.959344 L56.9636332,223.66603 L0.837700488,223.66603 L0.837700488,235.812438 Z" id="kith"></path>
                    </g>
                </g>
            </g>
        </g>
    </g>
</svg>