<?xml version="1.0" encoding="UTF-8"?>
<svg width="55px" height="26px" viewBox="0 0 55 26" version="1.1" xmlns="http://www.w3.org/2000/svg" xmlns:xlink="http://www.w3.org/1999/xlink">
    <!-- Generator: Sketch 63.1 (92452) - https://sketch.com -->
    <title>North Face</title>
    <desc>Created with Sketch.</desc>
    <g id="MSCHFX" stroke="none" stroke-width="1" fill="none" fill-rule="evenodd">
        <g id="Desktop-|-Launch-State" transform="translate(-1077.000000, -172.000000)" fill="#0D00FF">
            <g id="HOMEPAGE" transform="translate(161.000000, 52.000000)">
                <g id="SHIRT-PIECE-MODAL" transform="translate(538.000000, 56.000000)">
                    <g id="BrandLogos" transform="translate(375.699984, 19.549999)">
                        <path d="M42.6917043,70.1806043 L38.910602,70.1806043 L38.910602,62.3192342 L40.2956455,62.3192342 C40.9079506,62.3192342 41.4936749,62.5316009 41.9991826,63.0119203 C42.3983675,63.4114738 42.6917043,64.0243443 42.6917043,64.7170305 L42.6917043,70.1806043 Z M49.0283496,70.1806043 L43.3837514,70.1806043 L43.3837514,64.7170305 C43.3837514,63.8115025 43.0908892,63.1183412 42.4785842,62.5316009 C41.8928598,61.9192055 41.0940153,61.6260729 40.2951709,61.6260729 L38.910602,61.6260729 L38.910602,53.7908329 L39.7094465,53.7908329 C41.7860624,53.7908329 43.5702909,54.376623 45.1679799,55.5762338 C45.5676394,55.7624704 45.9668244,56.162499 46.2592119,56.4556316 C48.1502377,58.3484037 49.0283496,60.5333581 49.0283496,63.1183412 L49.0283496,70.1806043 Z M38.9110766,45.2358263 C43.8636277,45.2358263 48.1502377,47.0483076 51.6114225,50.5126885 C55.1794047,54.0839655 56.9636332,58.3479286 56.9636332,63.3311831 L56.9636332,70.1806043 L49.721346,70.1806043 L49.721346,63.1183412 C49.721346,60.3471215 48.7359621,57.948375 46.7390882,55.9762624 C46.2596865,55.4698129 45.7541789,55.0697842 45.1684545,54.6702307 C43.5707655,53.5775159 41.6802144,53.0976716 39.7099211,53.0976716 L38.9110766,53.0976716 L38.9110766,45.2358263 Z M29.9913585,64.9037422 L31.5624668,64.9037422 C31.4822501,64.2115311 31.2691299,63.6247908 30.7892536,63.1183412 C30.0976812,62.5316009 29.2988367,62.1320474 28.20713,62.1320474 C27.1154234,62.1320474 26.3165789,62.5316009 25.6240571,63.2247621 C25.0388074,63.9174483 24.6391478,64.9037422 24.6391478,66.210249 C24.6391478,68.9819437 25.8110712,70.366841 28.1008073,70.366841 C30.0976812,70.366841 31.1889132,69.3805471 31.5624668,67.4887252 L29.9913585,67.4887252 C29.7782383,68.3942532 29.0857166,68.8745726 28.20713,68.8745726 C26.9023032,68.8745726 26.3165789,67.9951748 26.3165789,66.2895895 C26.3165789,64.4243729 26.9023032,63.5178948 28.20713,63.5178948 C29.0857166,63.5178948 29.5921735,64.0243443 29.9913585,64.9037422 L29.9913585,64.9037422 Z M21.2577051,64.10416 L22.2426143,67.1965428 L20.2727958,67.1965428 L21.2577051,64.10416 Z M22.2426143,62.3192342 L20.3525378,62.3192342 L17.5834001,70.1806043 L19.2608312,70.1806043 L19.8731362,68.4750191 L22.7485967,68.4750191 L23.2279983,70.1806043 L24.93201,70.1806043 L22.2426143,62.3192342 Z M19.4734766,57.2552138 L19.4734766,55.1766803 L21.4442445,55.1766803 C22.2426143,55.1766803 22.6422739,55.4698129 22.6422739,56.162499 C22.6422739,56.8556603 22.2426143,57.2552138 21.3640278,57.2552138 L19.4734766,57.2552138 Z M21.1513823,58.5617206 C21.6573646,58.5617206 22.0565496,58.6410612 22.2426143,58.8543781 L22.5359512,61.5201271 L24.319705,61.5201271 L24.319705,61.3334154 C24.1331655,61.2260443 24.0268428,60.7471502 24.0268428,59.8401969 C24.0268428,58.7484323 23.6271832,58.1612169 23.0419335,57.8680843 C23.8403033,57.5483464 24.2394883,56.9620812 24.2394883,55.9762624 C24.2394883,54.590415 23.4411184,53.7908329 21.7636874,53.7908329 L17.8762623,53.7908329 L17.8762623,61.5201271 L19.4734766,61.5201271 L19.4734766,58.5617206 L21.1513823,58.5617206 Z M30.9767424,55.1766803 L30.9767424,53.7908329 L24.6391478,53.7908329 L24.6391478,55.1766803 L27.008626,55.1766803 L27.008626,61.5201271 L28.606315,61.5201271 L28.606315,55.1766803 L30.9767424,55.1766803 Z M14.6011423,65.5170877 L14.6011423,63.7041314 L18.5683094,63.7041314 L18.5683094,62.3192342 L13.030034,62.3192342 L13.030034,70.1806043 L14.6011423,70.1806043 L14.6011423,66.9029351 L18.0889078,66.9029351 L18.0889078,65.5170877 L14.6011423,65.5170877 Z M7.27911308,53.7908329 L7.27911308,59.2539317 L4.1905325,53.7908329 L2.51310146,53.7908329 L2.51310146,61.5201271 L4.00399306,61.5201271 L4.00399306,56.0826833 L7.17231569,61.5201271 L8.84974673,61.5201271 L8.84974673,53.7908329 L7.27911308,53.7908329 Z M11.2462802,57.6552424 C11.2462802,55.8693664 11.9383273,54.9899686 13.3228962,54.9899686 C14.8142624,54.9899686 15.5063095,55.8693664 15.5063095,57.6552424 C15.5063095,59.5475394 14.8142624,60.4530674 13.3228962,60.4530674 C11.9383273,60.4530674 11.2462802,59.5475394 11.2462802,57.6552424 L11.2462802,57.6552424 Z M13.3228962,53.5775159 C10.8470953,53.5775159 9.54226848,54.9899686 9.54226848,57.6552424 C9.54226848,60.4530674 10.8470953,61.8389147 13.3228962,61.8389147 C15.7991717,61.8389147 17.0774178,60.4530674 17.0774178,57.6552424 C17.0774178,54.9899686 15.7991717,53.5775159 13.3228962,53.5775159 L13.3228962,53.5775159 Z M18.2754472,45.2358263 L18.2754472,46.648279 L20.6719807,46.648279 L20.6719807,52.9907756 L22.2426143,52.9907756 L22.2426143,46.648279 L24.6391478,46.648279 L24.6391478,45.2358263 L18.2754472,45.2358263 Z M31.2691299,45.2358263 L29.6980216,45.2358263 L29.6980216,48.220363 L26.609441,48.220363 L26.609441,45.2358263 L25.0388074,45.2358263 L25.0388074,52.9907756 L26.609441,52.9907756 L26.609441,49.5263947 L29.6980216,49.5263947 L29.6980216,52.9907756 L31.2691299,52.9907756 L31.2691299,45.2358263 Z M37.81937,63.7041314 L37.81937,62.3192342 L32.1738225,62.3192342 L32.1738225,70.1806043 L37.81937,70.1806043 L37.81937,68.7686268 L33.7449308,68.7686268 L33.7449308,66.6896182 L37.312913,66.6896182 L37.312913,65.4106668 L33.7449308,65.4106668 L33.7449308,63.7041314 L37.81937,63.7041314 Z M36.2487363,53.7908329 L36.2487363,56.7753695 L33.1592064,56.7753695 L33.1592064,53.7908329 L31.5624668,53.7908329 L31.5624668,61.5201271 L33.1592064,61.5201271 L33.1592064,58.054796 L36.2487363,58.054796 L36.2487363,61.5201271 L37.81937,61.5201271 L37.81937,53.7908329 L36.2487363,53.7908329 Z M37.81937,46.648279 L37.81937,45.2358263 L32.1738225,45.2358263 L32.1738225,52.9907756 L37.81937,52.9907756 L37.81937,51.7118242 L33.7449308,51.7118242 L33.7449308,49.6062103 L37.312913,49.6062103 L37.312913,48.220363 L33.7449308,48.220363 L33.7449308,46.648279 L37.81937,46.648279 Z" id="North-Face"></path>
                    </g>
                </g>
            </g>
        </g>
    </g>
</svg>
