<?xml version="1.0" encoding="UTF-8"?>
<svg width="59px" height="80px" viewBox="0 0 59 80" version="1.1" xmlns="http://www.w3.org/2000/svg" xmlns:xlink="http://www.w3.org/1999/xlink">
    <!-- Generator: Sketch 63.1 (92452) - https://sketch.com -->
    <title>offwhite</title>
    <desc>Created with Sketch.</desc>
    <g id="MSCHFX" stroke="none" stroke-width="1" fill="none" fill-rule="evenodd">
        <g id="Desktop-|-Launch-State" transform="translate(-1075.000000, -450.000000)" fill="#010202">
            <g id="HOMEPAGE" transform="translate(161.000000, 52.000000)">
                <g id="SHIRT-PIECE-MODAL" transform="translate(538.000000, 56.000000)">
                    <g id="BrandLogos" transform="translate(375.699984, 19.549999)">
                        <path d="M39.0657411,343.519792 C39.0461389,343.635897 39.0079398,344.989453 38.9787878,346.546068 C38.940086,348.914415 38.9596882,349.369286 39.0752909,349.417035 C39.1526944,349.446187 41.1154265,349.475339 43.4450715,349.475339 C45.775219,349.484889 47.7374485,349.523591 47.8053022,349.571842 C47.9696591,349.668345 47.8827058,349.813603 47.2835824,350.46148 C47.0126701,350.74144 46.345693,351.47627 45.7847688,352.085446 C45.233897,352.694622 44.7307741,353.245996 44.6729728,353.303798 C42.8650477,355.246928 41.4149882,356.726139 36.2812249,361.869452 C32.8975852,365.262642 30.0748699,368.037105 29.9874139,368.037105 C29.910513,368.037105 29.8331095,367.998906 29.8135073,367.950152 C29.8039575,367.902403 26.4298677,364.470009 22.3405493,360.331937 C18.2411784,356.194367 14.3745207,352.268903 13.736193,351.601925 C13.0978652,350.934948 12.4791397,350.306673 12.3730868,350.190568 C12.2569815,350.084515 12.1313265,349.891006 12.0926247,349.765351 L12.024771,349.54269 L12.9239586,349.600994 C13.4265789,349.639696 15.3988608,349.668345 17.3037916,349.668345 C20.0491035,349.678398 20.7934841,349.649246 20.8613378,349.552743 C20.9000396,349.484889 20.9291916,348.102181 20.9095894,346.478214 L20.8899872,343.529844 L18.7634008,343.47154 C17.5933009,343.432838 13.1466194,343.404189 8.88289172,343.394137 L1.11941914,343.384084 L1.10986936,345.192512 C1.10986936,346.197752 1.09076979,347.183893 1.08071738,347.396502 C1.06161781,347.609613 1.04251824,351.350615 1.03246584,355.701296 C1.01336627,362.09161 1.04251824,363.638173 1.13902133,363.696979 C1.35162971,363.831682 6.95886136,363.80253 7.09456883,363.667827 C7.18101951,363.580372 7.21017149,362.362523 7.21017149,358.804474 C7.21017149,356.184817 7.23932346,354.028576 7.26847544,353.989874 C7.30667458,353.960722 7.6645402,354.289939 8.08070978,354.724705 C8.49637674,355.159974 10.4395067,357.132256 12.4017362,359.114088 C14.3549185,361.08637 18.1250731,364.885676 20.7743845,367.554087 C23.4136435,370.222498 25.5789316,372.46519 25.5789316,372.542593 C25.5789316,372.70695 26.2655109,372.001271 17.7576577,380.605628 C13.9005498,384.51149 9.98513796,388.484703 9.05679833,389.432645 C8.12896133,390.370032 7.32627677,391.143564 7.28757501,391.143564 C7.24887325,391.143564 7.2006217,389.083826 7.19107192,386.570222 L7.16191994,382.007436 L4.15524553,381.978786 L1.14857112,381.959184 L1.09076979,382.993577 C1.05206803,383.5736 0.974664509,388.030837 0.906810774,392.912787 C0.810307683,400.608406 0.810307683,401.807156 0.935962749,401.884559 C1.01336627,401.932811 5.14138649,401.96146 10.9808287,401.94236 L20.8899872,401.922758 L20.9191391,398.935686 C20.9387413,396.605539 20.9095894,395.929012 20.8226361,395.861661 C20.7547823,395.822959 18.7055995,395.783754 16.2789489,395.783754 C12.7983036,395.783754 11.8508644,395.755105 11.8508644,395.658099 C11.8508644,395.522894 13.0787657,394.275391 22.7753158,384.463238 C26.5263708,380.673481 29.6878522,377.473298 29.8039575,377.347643 C29.9200628,377.221988 30.0748699,377.124982 30.1522734,377.124982 C30.2291743,377.124982 30.7609465,377.618053 31.3409703,378.227229 C32.5402222,379.484282 47.8927582,394.991122 48.3757762,395.425889 C49.0236537,396.026017 49.1784608,396.006415 43.9285921,395.967713 L39.1622442,395.929012 L39.1044429,398.877885 C39.0461389,401.217079 39.0657411,401.855407 39.1622442,401.96146 C39.2592499,402.068016 40.4192975,402.106717 45.1660432,402.174068 C48.4049282,402.222823 52.8134105,402.299723 54.959599,402.358027 C57.1153374,402.406279 58.9041629,402.425881 58.9428646,402.387179 C59.0393677,402.271074 59.0489175,396.673392 58.9428646,392.93239 C58.8946131,391.123962 58.8559113,387.924281 58.8458589,385.826344 C58.8363091,383.728407 58.7976074,381.949634 58.7589056,381.89133 C58.7011043,381.794325 58.0240748,381.785277 55.6843775,381.843079 L52.6973052,381.910933 L52.6973052,386.328965 C52.6973052,388.755615 52.6681533,390.776149 52.6199017,390.81485 C52.5812,390.853552 51.5855092,389.915663 50.4058595,388.716913 C49.2267123,387.527714 45.2142948,383.467547 41.4923917,379.70644 C37.7604363,375.935783 34.676861,372.784354 34.6376566,372.70695 C34.5316037,372.533044 34.6090072,372.45564 39.5683614,367.457584 C45.1273415,361.850353 46.7905119,360.158533 49.7971863,357.103104 C51.2859476,355.594741 52.5424982,354.35729 52.6008022,354.35729 C52.6681533,354.35729 52.7169074,355.971706 52.7455568,359.191491 L52.7938083,364.02519 L58.7880576,364.02519 L58.8654611,353.970775 C58.9137127,347.464355 58.9137127,343.848505 58.8458589,343.7133 C58.7589056,343.509739 58.7011043,343.500692 55.7235818,343.442891 C54.0604114,343.413739 49.6423793,343.375037 45.9008741,343.355435 L39.1139927,343.317236 L39.0657411,343.519792 Z M0.877658798,322.617825 C0.849009443,322.685679 0.839459658,326.697594 0.849009443,331.541346 L0.877658798,340.339211 L29.881361,340.387965 C45.8330203,340.416614 58.9428646,340.416614 59.0102157,340.397012 C59.1072215,340.377912 59.126321,338.541338 59.1072215,331.454392 L59.0780695,322.550474 L29.9974663,322.521825 C6.78495474,322.502223 0.906810774,322.521825 0.877658798,322.617825 L0.877658798,322.617825 Z" id="offwhite"></path>
                    </g>
                </g>
            </g>
        </g>
    </g>
</svg>