<?xml version="1.0" encoding="UTF-8"?>
<svg width="59px" height="13px" viewBox="0 0 59 13" version="1.1" xmlns="http://www.w3.org/2000/svg" xmlns:xlink="http://www.w3.org/1999/xlink">
    <!-- Generator: Sketch 63.1 (92452) - https://sketch.com -->
    <title>palace</title>
    <desc>Created with Sketch.</desc>
    <g id="MSCHFX" stroke="none" stroke-width="1" fill="none" fill-rule="evenodd">
        <g id="Desktop-|-Launch-State" transform="translate(-1075.000000, -334.000000)" fill="#010202">
            <g id="HOMEPAGE" transform="translate(161.000000, 52.000000)">
                <g id="SHIRT-PIECE-MODAL" transform="translate(538.000000, 56.000000)">
                    <g id="BrandLogos" transform="translate(375.699984, 19.549999)">
                        <path d="M48.1945171,207.199872 C49.3475649,207.707805 49.7444929,208.230442 49.2842055,209.683397 C49.0778216,210.33569 48.7298108,210.946992 48.4474888,211.573889 L45.2441122,211.573889 C45.4835735,210.810652 46.0878171,210.192667 46.0566033,209.405816 C45.8297207,209.118879 45.565568,209.153632 45.2995517,209.22002 C44.8811933,209.325616 44.5508859,209.56488 44.3267986,209.907066 C43.8585913,210.62441 43.3782711,211.337299 42.970628,212.086277 C42.3151377,213.290613 41.7113599,214.521237 41.0940717,215.744286 C40.9780681,215.973302 40.8811655,216.215238 40.8094203,216.460739 C40.7274258,216.741884 40.6347161,217.032832 40.8019662,217.31576 C41.4108687,217.556805 41.9042334,217.454327 42.3034908,216.902284 C42.7348937,216.305686 43.0950174,215.660522 43.4830937,215.034962 C43.5767351,214.883919 43.6577979,214.725747 43.7598252,214.543069 L46.931522,214.543069 C46.0137425,216.47767 44.9026237,218.174345 42.791265,219.006197 C41.3740643,219.564032 39.9051513,219.607696 38.4301818,219.23744 C37.6102366,219.031593 37.2389319,218.578018 37.2799292,217.778246 C37.3055525,217.273432 37.3968645,216.752578 37.5738981,216.278507 C38.4152737,214.025334 39.5268584,211.900926 40.9636259,209.935136 C41.9652634,208.564608 43.4542092,207.460522 44.9608584,207.137049 C46.4670417,206.814021 47.1155438,206.842091 48.1945171,207.199872 Z M39.3999532,207.373416 C38.3074695,211.397671 37.225701,215.382272 36.1369443,219.392716 L32.6055897,219.392716 C32.8543685,218.694531 33.0854439,218.04803 33.3314275,217.357865 L30.7513955,217.357865 C30.2883129,218.029762 29.8140492,218.718145 29.3379219,219.409647 L18.698202,219.409647 C20.8053679,215.344846 22.9316347,211.361136 25.0210971,207.377871 L28.3204446,207.377871 C26.6609874,210.537304 25.03321,213.637478 23.3597765,216.823644 L27.3434986,216.823644 C27.2194586,217.127401 27.1106178,217.394066 27.0055769,217.65127 L26.9097005,217.88402 L27.047252,217.747016 C27.1501592,217.645396 27.2526524,217.543513 27.3402374,217.430936 C29.8503877,214.206452 32.3558791,210.978849 34.8632341,207.752583 C34.9606025,207.626491 35.0649592,207.506191 35.1744405,207.373416 L39.3999532,207.373416 Z M21.4976624,207.387718 C20.404247,211.410637 19.324342,215.383654 18.2355853,219.390533 L14.7112188,219.390533 C14.9572023,218.690565 15.183619,218.046738 15.4258755,217.356573 L12.8542294,217.356573 C12.3944079,218.021787 11.9103608,218.723091 11.4393582,219.40479 L8.12044388,219.40479 C8.27558123,218.983295 16.6399534,208.141152 17.3797675,207.387718 L21.4976624,207.387718 Z M12.3006267,207.361653 C12.4240843,207.361653 12.5480079,207.378139 12.669602,207.395961 C13.9493686,207.584431 14.5997342,208.388658 14.2596433,209.58141 C13.5198292,212.176769 11.9009034,214.020477 9.06883156,214.680345 C8.51490271,214.809556 7.92463539,214.801536 7.34974204,214.839853 C7.04412612,214.859903 6.73571494,214.843418 6.41472506,214.843418 C5.60456335,216.378801 4.80884387,217.887452 4.0084656,219.405013 L0.837700488,219.405013 C0.898730495,218.979062 7.08139636,207.369673 7.08139636,207.369673 L7.33294987,207.369115 C8.16640955,207.367295 10.8658429,207.361653 12.3006267,207.361653 Z M58.6390341,207.384778 C58.177815,208.267868 57.7482755,209.090809 57.2973057,209.955632 L53.1370159,209.955632 L52.5974128,210.945878 C52.4165357,211.277817 52.232281,211.615993 52.037544,211.973552 L55.9467256,211.973552 C55.5069369,212.845949 55.109543,213.635027 54.6916505,214.46376 L50.7759466,214.46376 C50.3631788,215.231452 49.9620579,215.977757 49.5092245,216.819411 L53.8367645,216.819411 C53.3494562,217.745721 52.9180533,218.566879 52.4805939,219.399622 L44.8485818,219.399622 C46.9795074,215.351752 49.0778216,211.36626 51.1738064,207.384778 L58.6390341,207.384778 Z M35.886302,210.081947 C34.7034379,211.648073 33.5438678,213.217319 32.421102,214.894389 L34.1877111,214.894389 C34.7635362,213.263211 35.3244532,211.673025 35.886302,210.081947 Z M17.9937946,210.048574 C16.87429,211.636534 15.7552512,213.224938 14.5868294,214.883295 L16.3716077,214.883295 C16.9409105,213.272167 17.5041569,211.67797 18.0669374,210.083328 C18.0427118,210.071743 18.0184861,210.060159 17.9937946,210.048574 Z M9.18436928,209.6977 C8.69473159,210.623564 8.20602565,211.546309 7.68796941,212.526085 C8.57267158,212.649949 9.25890975,212.487321 9.75413798,211.851068 C10.2051078,211.271847 10.7725471,210.335735 10.4916227,209.920923 C10.2787165,209.606361 9.64139552,209.668293 9.18436928,209.6977 Z" id="palace"></path>
                    </g>
                </g>
            </g>
        </g>
    </g>
</svg>