<?xml version="1.0" encoding="UTF-8"?>
<svg width="58px" height="41px" viewBox="0 0 58 41" version="1.1" xmlns="http://www.w3.org/2000/svg" xmlns:xlink="http://www.w3.org/1999/xlink">
    <!-- Generator: Sketch 63.1 (92452) - https://sketch.com -->
    <title>stussy</title>
    <desc>Created with Sketch.</desc>
    <g id="MSCHFX" stroke="none" stroke-width="1" fill="none" fill-rule="evenodd">
        <g id="Desktop-|-Launch-State" transform="translate(-1074.000000, -220.000000)" fill="#010202">
            <g id="HOMEPAGE" transform="translate(161.000000, 52.000000)">
                <g id="SHIRT-PIECE-MODAL" transform="translate(538.000000, 56.000000)">
                    <g id="BrandLogos" transform="translate(375.699984, 19.549999)">
                        <path d="M22.2627809,92.9847541 C22.3154656,93.0247026 22.2757036,93.130566 22.2757036,93.1570319 C22.2757036,93.1570319 22.2364385,93.1834977 22.342305,93.1834977 C22.4476745,93.1834977 22.4213321,93.1041001 22.5267016,93.1041001 C22.6325681,93.1041001 22.6062257,93.1834977 22.7115952,93.1834977 C22.8174617,93.1834977 22.9625933,93.0641517 23.0684598,93.0641517 C23.1872489,93.0641517 23.0948021,93.1440486 23.2001716,93.1440486 C23.3060381,93.1440486 23.2399337,93.0247026 23.3458002,93.0247026 C23.43775,93.0247026 23.5565391,93.1170834 23.6758253,93.2104629 C23.7285101,93.3293096 23.7150904,93.4621382 23.7811948,93.5814842 C23.8343766,93.6748638 23.939746,93.7407787 24.0058505,93.7942098 C24.0321928,93.8206756 24.0719549,93.8336589 24.0719549,93.9400217 C24.0719549,94.0458851 23.7811948,94.2581113 23.7150904,94.4174058 C23.4248273,94.4703375 23.3189608,94.98767 23.2135913,95.2663106 C23.1077248,95.5714169 22.9362509,95.8900059 22.7906223,96.2215781 C22.764777,96.2350607 22.7250149,96.2750092 22.6986726,96.3144583 C22.6852529,96.4338043 22.6723302,96.6195647 22.6325681,96.7788591 C22.592806,96.9511369 22.4740169,97.1903283 22.3815701,97.3361402 C22.302543,97.4420036 22.1439917,97.4684694 22.0649646,97.5748322 C22.3552277,97.8399901 22.5664637,97.8135243 22.8174617,97.8135243 C22.9228312,97.8135243 23.2399337,97.7740752 23.3458002,97.7740752 C23.4511697,97.7740752 23.3850652,97.6941782 23.4909317,97.6941782 C23.5963012,97.6941782 23.7021677,97.866456 23.8075372,97.866456 C23.9134037,97.866456 24.0321928,97.7336273 24.1375623,97.7336273 C24.2434288,97.7336273 24.5336919,97.9064044 24.6395584,97.9064044 C24.7454249,97.9064044 24.8378717,97.8270069 24.9695836,97.7870584 C25.0888698,97.7471099 25.2732663,97.8399901 25.4318176,97.8000417 C25.5640265,97.7605925 25.7489201,97.6412465 25.8542895,97.6412465 C25.959659,97.6412465 26.1316299,97.8135243 26.2374964,97.8135243 C26.3299433,97.8135243 27.0034132,97.5219005 27.1087827,97.5219005 C27.2936763,97.5219005 27.4388079,97.7740752 27.6366242,97.7740752 C27.7424907,97.7740752 27.9537266,97.6941782 28.0595931,97.6941782 C28.1649626,97.6941782 28.6669587,97.7740752 28.7728252,97.7740752 C28.8781947,97.7740752 28.904537,97.7471099 28.9179567,97.6677124 C29.0367459,97.6542298 29.2082198,97.6542298 29.3796937,97.6542298 C29.4194558,97.6542298 29.4457982,97.5748322 29.5516647,97.5748322 C29.6441115,97.5748322 29.8155854,97.6542298 29.9214519,97.6542298 C30.0268214,97.6542298 30.7400534,97.4020551 30.8459199,97.4020551 C30.9910515,97.4020551 31.4135234,97.6012981 31.4791308,97.6941782 C31.5059702,97.6677124 31.6113397,97.6142813 31.6511018,97.6142813 C32.1526008,97.6142813 32.2982294,97.6542298 32.4035989,97.6542298 C32.5094654,97.6542298 32.5487304,97.6677124 32.6411772,97.5748322 C32.694359,97.5748322 32.733624,97.6142813 33.4468561,97.5748322 C33.5393029,97.5748322 33.6580921,97.6542298 33.7639586,97.6542298 C34.0671443,97.6542298 33.9354325,97.3226576 34.1993532,97.3226576 C34.3052197,97.3226576 34.6750069,97.6142813 34.7803764,97.6142813 C34.8862429,97.6142813 34.96527,97.5348837 35.0706395,97.5348837 C35.176506,97.5348837 35.216268,97.6542298 35.3216375,97.6542298 C35.427504,97.6542298 35.5989779,97.5748322 35.7048444,97.5748322 C35.7311868,97.5748322 35.8370533,97.6012981 35.9687651,97.7870584 C36.1273164,97.7471099 36.3385524,97.6142813 36.4444189,97.6142813 C36.5497883,97.6142813 36.6158928,97.6941782 36.7212622,97.6941782 C36.8271287,97.6941782 37.2893628,97.5748322 37.3947322,97.5748322 C37.5005987,97.5748322 37.8967283,97.8270069 38.0020978,97.8270069 C38.1343067,97.8270069 38.4643318,97.4954346 38.6889875,97.4954346 C38.794854,97.4954346 39.4151422,97.7870584 39.5210087,97.7870584 C39.6263782,97.7870584 39.7585871,97.7076608 39.890796,97.6677124 L39.890796,97.6677124 L42.0821828,97.7605925 C42.0821828,97.8135243 42.0429178,97.8934212 42.0429178,98.0127672 C42.0692602,98.0392331 42.1224419,98.0392331 42.1353646,98.0791815 C42.1224419,97.547867 42.7163878,97.7605925 42.9276238,97.4020551 C43.1388597,97.5348837 43.5613317,97.5748322 43.6935406,97.5748322 L43.6935406,97.5748322 L44.3009061,97.5748322 C44.3535909,97.6142813 44.4062756,97.7076608 44.432618,97.7740752 L44.432618,97.7740752 L44.5121421,97.7740752 C44.5782465,97.7336273 44.644351,97.5878155 44.7497204,97.5748322 C45.4892949,97.4954346 46.1891072,97.5748322 46.8357378,97.4684694 C46.9684437,97.4554862 47.0340512,97.2827091 47.126498,97.1503798 C47.3511536,97.2297774 47.6016547,97.2827091 47.7602059,97.4155377 C47.8924148,97.5348837 48.0773084,97.9064044 48.0773084,98.0127672 C48.0773084,98.1316139 47.6811788,98.5435824 47.5092078,98.5435824 C47.4038384,98.5435824 47.2060221,98.4502028 47.0738132,98.3443394 C47.0474709,98.3173742 46.9684437,98.3308568 46.8754999,98.3573227 C46.7830531,98.2914077 46.6513413,98.2514593 46.5454748,98.2514593 C46.4401053,98.2514593 45.2646392,98.3308568 45.1592697,98.3308568 C45.0534032,98.3308568 44.7233781,98.5830315 44.6180086,98.5830315 C44.5121421,98.5830315 44.4062756,98.4107537 44.3009061,98.4107537 C44.1950396,98.4107537 44.010146,98.6229799 43.9047765,98.6229799 C43.8123297,98.6229799 43.7994071,98.5031346 43.6408558,98.423737 C43.4952273,98.3443394 43.2576489,98.2914077 43.1517824,98.2914077 C42.874939,98.2914077 43.0464129,98.4372196 42.874939,98.7023775 L42.874939,98.7023775 L42.3202582,98.7023775 C42.2278114,98.6629284 42.1746296,98.5300998 42.0692602,98.5031346 C41.8714439,98.4502028 41.6070261,98.5300998 41.3957902,98.5166172 C41.3431054,98.4901513 41.3560281,98.4502028 41.2506586,98.4502028 C41.1447921,98.4502028 41.0394226,98.5695489 40.9335561,98.5695489 C40.8281867,98.5695489 40.7357399,98.423737 40.5901113,98.4107537 C40.4320571,98.3837885 40.2208211,98.4502028 40.0488502,98.423737 C39.9698231,98.4107537 39.9037186,98.2914077 39.7983491,98.2379767 C39.7322447,98.1980282 39.6000358,98.2249934 39.4812467,98.2514593 C39.4017225,98.2644425 39.2963531,98.1850449 39.1909836,98.1850449 C39.0851171,98.1850449 38.9002235,98.4372196 38.794854,98.4372196 C38.6889875,98.4372196 38.583121,98.3573227 38.4777515,98.3573227 C38.372382,98.3573227 38.0418599,98.4372196 37.9364904,98.4372196 C37.8042815,98.4372196 37.7645195,98.423737 37.6328076,98.3173742 C37.5269411,98.304391 36.774444,98.4771681 36.6685775,98.4771681 C36.563208,98.4771681 36.4971036,98.3573227 36.3912371,98.3173742 C36.2724479,98.2779251 36.1273164,98.2644425 36.0219469,98.2644425 C35.9160804,98.2644425 35.7441095,98.4631861 35.5989779,98.5565656 C35.5989779,98.5565656 35.5989779,98.5031346 35.5462932,98.4502028 L35.5462932,98.4502028 L35.6258173,98.3573227 L35.6258173,98.2514593 C35.5989779,98.2249934 35.6516627,98.2249934 35.5462932,98.2249934 C35.2560301,98.2249934 35.5333705,98.5166172 35.1501636,98.5166172 C35.0447941,98.5166172 34.8991656,98.4372196 34.7937961,98.4372196 C34.6879296,98.4372196 34.6089025,98.5166172 34.503036,98.5166172 C34.3976665,98.5166172 34.1074034,98.2249934 34.0015369,98.2249934 C33.8956704,98.2249934 33.7371192,98.423737 33.6054073,98.5166172 C33.0507265,98.4771681 33.0109644,98.5166172 32.9712024,98.5166172 C32.7997285,98.4631861 32.4960457,98.3443394 32.3901792,98.3443394 C32.3509141,98.3443394 32.2187053,98.3708053 32.0999161,98.4631861 L32.0999161,98.4631861 L31.5849973,98.4631861 C31.4135234,98.3708053 31.2549722,98.3308568 31.0834983,98.3173742 C31.0437362,98.2914077 31.0303165,98.1715623 30.924947,98.1715623 C30.8190805,98.1715623 30.5288174,98.3837885 30.4229509,98.3837885 C30.3175815,98.3837885 30.251477,98.3443394 30.1724499,98.304391 C30.1326879,98.304391 30.0929258,98.3443394 29.7629006,98.304391 C29.5645873,98.3837885 29.2211425,98.5565656 29.115773,98.5565656 C29.0104035,98.5565656 28.9308794,98.4771681 28.8255099,98.4771681 C28.7196434,98.4771681 28.5745119,98.6094973 28.4686454,98.6094973 C28.3632759,98.6094973 28.0069084,98.3972711 27.9010419,98.3972711 C27.7951754,98.3972711 27.6898059,98.5300998 27.5844364,98.5300998 C27.4785699,98.5300998 27.2539143,98.3173742 27.1485448,98.3173742 C26.8975467,98.3173742 26.633129,98.4631861 26.5148369,98.5565656 C26.4223901,98.5695489 26.2901812,98.5296004 26.2106571,98.5435824 C26.1182102,98.5695489 26.0128408,98.742326 25.9069743,98.742326 C25.8016048,98.742326 25.5903688,98.4502028 25.4845023,98.4502028 C25.3786358,98.4502028 25.1544772,98.5695489 25.0486107,98.5695489 C24.9561639,98.5695489 24.1773244,98.3972711 24.0719549,98.3972711 C23.9660884,98.3972711 23.6097209,98.4631861 23.4114076,98.5031346 C23.2399337,98.5435824 22.9228312,98.7293427 22.8174617,98.7293427 C22.7115952,98.7293427 22.3154656,98.5565656 22.2100962,98.5565656 C21.9590981,98.5565656 21.9590981,98.6229799 21.9590981,98.7293427 C21.9590981,99.0209665 21.4968641,99.3655219 21.4968641,100.055632 C21.4968641,100.161994 21.3914946,100.838122 21.2329434,101.196659 C21.1136572,101.4753 20.955603,101.819855 20.8894985,102.07203 C20.7046049,102.801589 20.4406842,103.54463 20.2160285,104.300655 C20.1896862,104.380552 20.2026088,104.499398 20.2294482,104.592778 C20.0182123,104.857936 19.9784502,105.255922 19.8994231,105.561029 C19.8725837,105.693857 19.7537945,105.826686 19.7537945,105.932549 L19.7537945,105.932549 L19.7537945,106.091844 L19.819899,106.158258 C20.0972394,105.892601 20.3611601,105.574511 20.5197113,105.282388 C20.5992355,105.242939 20.7180246,105.202491 20.8104714,105.083145 C20.8497365,104.990765 20.8497365,104.870919 20.9029182,104.778538 C20.9819453,104.73859 21.1404966,104.73859 21.206104,104.619244 C21.3517326,104.393535 21.3914946,104.128377 21.5232065,103.902668 C21.6419956,103.716908 21.879574,103.584079 21.9988602,103.438267 C22.0778873,103.331905 22.0778873,103.186093 22.1439917,103.066747 C22.2891233,102.841537 22.4740169,102.602346 22.6986726,102.337188 L22.6986726,102.337188 L22.8308814,102.470017 C22.8567268,102.470017 22.8830691,102.483 22.9099085,102.443551 C23.0550401,101.913235 23.266276,101.448335 23.6097209,101.143728 C23.6624056,101.130245 23.7419298,101.130245 23.7811948,101.116763 C23.8602219,101.050348 23.899984,100.931002 23.9526687,100.812156 C24.0719549,100.758724 24.2434288,100.546498 24.3492953,100.546498 C24.4546648,100.546498 24.4283224,100.625896 24.5336919,100.625896 C24.6395584,100.625896 24.7454249,100.466601 24.8642141,100.387204 C24.9432412,100.347755 25.0754501,100.360738 25.1544772,100.32079 C25.246924,100.267858 25.2603437,100.122046 25.3657131,100.122046 C25.4715796,100.122046 25.6032915,100.135029 25.6693959,100.174978 C25.8940516,100.307806 26.2638388,100.585947 26.2638388,100.69231 C26.2638388,100.798174 25.9338137,101.647578 25.9338137,101.753441 L25.9338137,101.753441 L25.9338137,102.377136 C25.9338137,102.483 25.7220807,102.868003 25.7220807,102.974366 C25.7220807,103.080229 25.8016048,103.014314 25.8016048,103.120178 C25.8016048,103.226041 25.6564733,103.863219 25.5371871,104.234241 C25.4845023,104.367069 25.3786358,104.526364 25.3130284,104.64571 C25.0754501,104.632227 25.0883727,104.725107 25.0883727,104.857936 C25.0883727,104.950816 25.2603437,105.375268 25.2603437,105.481631 C25.2603437,105.587495 25.0093456,106.198207 25.0093456,106.21119 C25.0093456,106.317053 25.0222683,106.30407 25.0883727,106.317053 C24.9034791,106.423416 24.9830033,106.794937 24.9432412,106.953732 C24.8905565,107.113526 24.78469,107.325253 24.7454249,107.524496 L24.7454249,107.524496 L24.824452,107.59091 C24.9303185,107.577427 25.035688,107.272321 25.1808195,107.139492 C25.246924,107.086561 25.3393708,107.047112 25.4054752,107.007163 C25.4581599,106.927765 25.4188949,106.874334 25.4188949,106.767972 C25.4188949,106.675591 25.9730787,106.277604 26.0262605,105.706841 C26.3562856,105.693857 26.2240768,105.242939 26.3165236,105.123094 C26.5014172,104.857936 26.6992334,104.619244 26.8712044,104.446966 C26.9373088,104.380552 26.8841271,104.234241 26.8841271,104.128377 C26.8841271,103.969083 27.0426783,103.969083 27.1217054,103.823271 C27.2409916,103.624028 27.3334384,103.398319 27.4388079,103.199575 C27.4914926,103.106695 27.6634635,103.093712 27.768833,102.987349 C27.8746995,102.881486 27.940804,102.695725 28.0332508,102.536431 C28.2971715,102.430568 28.7857479,102.25779 29.076011,102.085013 C29.1421154,102.045564 29.1684578,101.926218 29.2743243,101.926218 C29.3796937,101.926218 29.5119026,102.032082 29.6043494,102.124962 C29.6306918,102.151428 29.7102159,102.138444 29.789243,102.151428 C30.1063455,102.536431 30.2778194,102.576379 30.2778194,102.960883 C30.2778194,103.014314 30.0268214,103.478216 30.0268214,103.491699 C30.0268214,103.598061 30.1063455,104.221257 30.1987923,104.592778 C30.2246376,104.632227 30.2648967,104.672176 30.3573435,104.765555 C30.2778194,104.897884 30.0665834,105.163042 30.0665834,105.268906 C30.0665834,105.375268 30.2778194,105.998964 30.2778194,106.104827 C30.2778194,106.21119 30.1063455,106.569228 30.1063455,106.675591 C30.1063455,106.767972 30.1456105,106.940749 30.1456105,107.060095 C30.1853726,107.086561 30.1853726,107.126509 30.2912391,107.126509 C30.5815022,107.126509 31.5059702,105.985481 31.5323126,105.959015 C31.7301289,105.773255 32.020889,105.813203 32.020889,105.574511 C32.020889,105.468149 32.1794402,105.401734 32.2187053,105.33532 C32.4304383,104.977282 32.905595,104.659192 33.2485428,104.287172 C33.2883048,104.274189 33.3280669,104.274189 33.367829,104.261206 C33.6580921,103.902668 33.9090901,103.517665 34.1730108,103.106695 C34.4901133,103.066747 34.6750069,102.629311 34.926005,102.629311 C35.0313744,102.629311 35.1108986,102.76214 35.216268,102.76214 C35.3216375,102.76214 35.6919218,102.25779 35.7972912,102.25779 C35.8763183,102.25779 36.6293125,102.416586 36.774444,102.629311 C36.8405484,102.642794 36.9722603,102.642794 37.1044692,102.695725 C37.196916,102.814572 37.3688869,103.000332 37.3688869,103.106695 C37.3688869,103.305938 37.0254421,103.26599 36.8932332,103.35887 C36.7481016,103.45175 36.6422351,103.598061 36.563208,103.703925 C36.6551578,103.796805 36.4175795,103.942617 36.31221,103.942617 C35.889738,103.942617 35.7311868,104.539347 35.5333705,104.765555 C35.2560301,105.083145 34.7013493,105.415217 34.5298754,105.693857 C34.4637709,105.746789 34.3181424,105.733307 34.252535,105.799721 C34.1466685,105.892601 34.1074034,106.012446 34.0278793,106.11781 C33.8956704,106.290588 33.6978541,106.409934 33.5393029,106.529779 C33.5393029,106.555745 33.5656453,106.582711 33.6054073,106.609177 C33.9354325,106.662108 34.2654576,106.781954 34.6089025,106.861351 C34.8599005,106.9008 35.1501636,106.940749 35.4011616,106.980697 C35.5989779,107.020146 35.8236336,106.953732 36.0219469,106.980697 C36.3519721,107.020146 36.9986027,107.245855 37.1044692,107.245855 C37.4081519,107.245855 37.6457303,106.914283 37.8306239,106.635642 C37.7515968,106.436399 37.5532835,106.463365 37.3947322,106.449882 C36.98568,106.409934 36.9195755,106.48983 36.813709,106.48983 C36.7083396,106.48983 36.4573415,106.091844 36.4573415,105.985481 C36.4573415,105.892601 36.5761307,105.706841 36.6293125,105.587495 C37.0517844,105.52108 37.1442312,105.189508 37.3420475,104.791522 C37.4608367,104.685159 37.5930455,104.605761 37.7252544,104.486415 C37.9891751,104.592778 38.5965407,104.314137 38.4643318,103.982066 C38.5567786,103.889685 38.6755678,103.863219 38.7416722,103.730391 C39.0851171,103.889685 39.2302486,103.26599 39.3624575,103.106695 C39.5210087,102.894469 39.7585871,102.629311 39.9827457,102.509965 C40.1283743,102.416586 40.3793723,102.390619 40.5245039,102.270774 C40.6298734,102.178393 40.7223202,101.97915 40.8281867,101.873287 C40.9603955,101.727475 41.1711345,101.713992 41.3167631,101.594646 C41.5806838,101.395403 41.8843665,101.169694 42.0956025,100.864588 C42.2939158,100.559981 42.5314942,100.18846 42.874939,100.280841 C43.1652021,100.161994 43.6140164,100.254375 43.7462253,99.8698713 C43.8650145,99.8164402 44.0369854,99.7769911 44.1686973,99.6446618 C44.3009061,99.7370426 44.4196953,99.8968365 44.5250648,99.8968365 C44.6309313,99.8968365 44.6706933,99.8164402 44.7760628,99.8164402 C44.8819293,99.8164402 44.9872988,99.9362856 45.0931653,99.9362856 C45.1856121,99.9362856 45.1985348,99.8563887 45.2909816,99.7635085 C45.5553993,99.8164402 45.7005309,100.068615 45.7402929,100.294324 C45.5156372,100.440136 45.5290569,100.59943 45.3839254,100.758724 C45.1195077,101.023882 44.7760628,101.315506 44.47238,101.621112 C44.4062756,101.687027 44.2874864,101.647578 44.221879,101.687027 C44.0369854,101.79339 43.7064632,101.939202 43.6667012,102.217842 C43.5876741,102.270774 43.4688849,102.25779 43.4027805,102.337188 C43.4688849,102.920935 42.8217573,103.26599 42.412705,103.756856 C42.3202582,103.863219 42.1353646,104.022014 41.9241286,104.022014 C41.8843665,104.181808 41.8843665,104.393535 41.8053394,104.55283 C42.2939158,104.911367 43.1125174,104.64571 43.6667012,105.083145 C43.7725677,105.043696 43.9311189,104.870919 44.0369854,104.870919 C44.1423549,104.870919 44.7760628,105.123094 44.8819293,105.123094 L44.8819293,105.123094 L45.6215038,105.123094 C45.8988442,104.73859 46.0568984,104.221257 46.49279,103.969083 C46.4664477,103.942617 46.4266856,103.902668 46.3740009,103.836254 C46.6642639,103.809788 46.6776836,103.345887 46.7567107,103.252507 C46.9023393,103.066747 47.1399177,102.788606 47.3113916,102.483 C47.377496,102.364153 47.4038384,102.191376 47.4565231,102.019098 C47.4962852,101.965667 47.5753123,101.88627 47.6016547,101.846821 C47.6150743,101.806872 47.6150743,101.727475 47.6150743,101.634095 C47.83973,101.541215 48.2224399,101.249591 48.3283064,101.249591 C48.4336759,101.249591 48.6185695,101.329488 48.724436,101.329488 C48.8298055,101.329488 49.0544611,101.077313 49.2259351,100.997916 C49.2786198,100.997916 49.3318016,101.090297 49.4108287,101.156711 C49.5693799,101.169694 49.7671962,101.143728 49.9128248,101.223125 C50.0977184,101.315506 50.4675056,101.859804 50.4675056,102.07203 L50.4675056,102.07203 L50.4675056,103.093712 C50.4675056,103.199575 50.0977184,103.743873 50.0977184,103.849737 C50.0977184,103.9556 50.1369834,104.14136 50.1504031,104.261206 C50.1767455,104.287172 50.2299272,104.287172 50.2691923,104.340603 C50.2691923,104.432984 50.1896681,104.539347 50.1896681,104.64571 C50.1896681,105.268906 50.4804282,105.14956 50.4804282,105.548046 C50.4804282,105.826686 50.3482194,106.131792 50.0579563,106.290588 C50.1369834,106.357002 50.4406662,106.476348 50.4406662,106.582711 C50.4406662,106.794937 50.1896681,107.139492 50.1896681,107.418133 C50.1896681,107.524496 50.321877,108.174657 50.321877,108.28102 C50.321877,108.386384 50.1504031,108.572643 50.071376,108.678507 C50.1504031,108.744921 50.2821149,108.850784 50.3089543,108.917199 C50.3750588,109.076493 50.2955346,109.421548 50.5201903,109.580843 C50.5201903,109.580843 50.5599524,109.580843 50.5862947,109.620292 C50.9029002,109.275736 50.8367958,108.837801 50.9690046,108.572643 C50.9824243,108.638558 51.0614514,108.704973 51.0877938,108.744921 C51.1673179,108.704973 51.2334224,108.678507 51.2334224,108.572643 C51.2334224,108.479763 51.1538982,108.452798 51.1538982,108.346935 C51.1538982,108.240572 51.3651342,108.161174 51.4710007,108.081777 C51.5236855,107.883033 51.5634475,107.59091 51.5634475,107.484547 C51.5634475,107.378684 51.4839234,107.299286 51.4839234,107.192923 C51.4839234,107.086561 51.7741865,106.847869 51.9327377,106.688574 C52.2369175,106.383468 52.2369175,106.051895 52.3820491,105.693857 C52.4213141,105.627443 52.3552097,105.561029 52.3552097,105.454666 C52.3552097,105.362285 52.5271806,105.282888 52.553523,105.202491 C52.6723122,104.73859 53.1872309,104.14136 53.0420994,103.650494 C53.1211265,103.558113 53.2404127,103.465233 53.2404127,103.35887 C53.2404127,103.252507 53.1211265,103.040281 53.1211265,102.934418 C53.1211265,102.775123 53.2930974,102.522948 53.2930974,102.217842 C53.3328595,102.16491 53.4248093,102.204859 53.4645713,102.191376 C53.5435984,102.124962 53.5967802,101.952684 53.7021497,101.952684 C53.8080162,101.952684 53.8741206,102.032082 53.9794901,102.032082 C54.1246216,102.032082 54.0590142,101.899253 54.151461,101.832839 C54.2702502,101.780406 54.4680665,101.740458 54.573933,101.740458 L54.573933,101.740458 L55.1017744,101.740458 C55.2076409,101.740458 55.1678788,101.819855 55.2737453,101.819855 C55.3791148,101.819855 55.3925345,101.806872 55.3791148,101.66106 C55.4322966,101.66106 55.498401,101.700509 55.6037705,101.700509 C55.70914,101.700509 55.7623217,101.66106 55.8547685,101.621112 C55.9467183,101.674044 55.960138,101.753441 56.0262424,101.832839 C56.1847937,101.753441 56.3035829,101.581163 56.4884765,101.501267 C56.6201883,101.634095 56.9636332,101.873287 56.9636332,101.97915 C56.9636332,102.244807 56.6733701,102.337188 56.5675036,102.549414 C56.5148188,102.708709 56.5148188,102.920935 56.5148188,103.027298 C56.5148188,103.17311 56.6862927,103.517665 56.6862927,103.531647 C56.6862927,103.63751 56.6072656,103.63751 56.6072656,103.743873 C56.6072656,103.849737 56.7394745,104.432984 56.7394745,104.539347 C56.7394745,104.64571 56.5277415,104.778538 56.4094494,104.897884 C56.4750568,105.016731 56.5545809,105.016731 56.6604474,105.097127 C56.6201883,105.852653 56.6604474,105.892601 56.6604474,105.946032 C56.4621341,106.290588 56.3299252,106.11781 56.3299252,106.39695 C56.3299252,106.409934 56.3170025,106.515797 56.5411612,106.635642 C56.5411612,107.192923 56.4750568,107.312269 56.5018962,107.736722 C56.5148188,107.869051 56.633608,108.015362 56.633608,108.121226 C56.633608,108.227589 56.4621341,108.306986 56.4621341,108.413349 C56.4621341,108.519212 56.5545809,108.625575 56.5675036,108.704973 C56.594343,108.824319 56.5675036,108.997096 56.5411612,109.169373 C56.5277415,109.288719 56.6201883,109.527911 56.6201883,109.634274 L56.6201883,109.634274 L56.6201883,109.88545 C56.4884765,109.925897 56.4884765,109.88545 56.3299252,110.045243 C56.3562676,110.07121 56.422372,110.111658 56.5277415,110.07121 L56.5277415,110.07121 L56.5277415,110.456213 C56.5277415,110.562576 56.4487144,110.589042 56.4487144,110.695405 C56.4487144,110.800769 56.6997124,111.238704 56.6997124,111.345066 C56.6997124,111.451429 56.6201883,111.530827 56.6201883,111.63669 C56.6201883,111.743053 56.6997124,111.862399 56.6997124,111.968262 C56.6997124,112.273868 56.1450316,112.300334 56.1186892,112.313817 C56.1321089,112.380231 56.2772405,112.472612 56.2508981,112.631906 C56.2772405,112.685337 56.3433449,112.711803 56.38261,112.777718 C56.5018962,112.963478 56.5018962,113.242119 56.6201883,113.48131 C56.6604474,113.573691 56.7787395,113.61364 56.7787395,113.719503 C56.7787395,113.919245 56.2374784,114.568907 56.2374784,114.621839 L56.2374784,114.621839 L56.2374784,115.152654 C56.2374784,115.722918 55.9467183,115.404329 55.7359794,116.067973 C55.8015868,116.054491 55.920873,116.094439 56.0133198,116.067973 C56.2772405,116.293183 56.4094494,116.611772 56.4094494,116.811015 C56.4094494,116.916878 56.3170025,117.089156 56.3035829,117.221984 C56.2638208,117.274916 55.9074533,117.407745 55.9074533,117.593505 C55.9074533,117.7528 56.3299252,118.070889 56.3299252,118.455892 C56.3299252,118.561756 56.3299252,118.787465 56.2772405,118.946759 C56.2508981,119.03914 56.1186892,119.119536 56.0525848,119.198934 C56.0391651,119.238383 56.0391651,119.304797 56.0660045,119.397677 C56.0391651,119.437126 55.960138,119.451108 55.960138,119.556972 C55.960138,119.662835 55.9999001,119.782681 55.9999001,119.888544 C55.9999001,119.994907 56.1052695,119.954459 56.1847937,120.00789 C56.211136,120.220616 56.2772405,120.472291 56.2901632,120.684517 C56.3170025,121.148918 56.211136,121.29473 56.211136,121.401093 C56.211136,121.506956 56.3433449,121.905442 56.3433449,122.011305 C56.3433449,122.117668 56.2508981,122.329395 56.2508981,122.515155 C56.1977164,122.515155 56.1186892,122.515155 56.0391651,122.528638 C56.0262424,122.541621 55.7623217,123.072436 55.7623217,123.165317 C55.7623217,123.271679 55.8676912,123.55032 55.9735577,123.749063 C56.0262424,123.841944 56.171374,123.948306 56.3035829,124.001238 L56.3035829,124.001238 L56.3035829,124.14705 C56.2638208,124.186998 56.1847937,124.134067 56.1847937,124.23993 C56.1847937,124.345794 56.2638208,124.23993 56.2638208,124.345794 C56.2638208,124.452156 56.211136,124.399225 56.1847937,124.439173 C56.1847937,124.478622 56.2245557,124.531554 56.2245557,124.637917 C56.2245557,124.770745 56.0794242,125.235146 55.9337956,125.235146 C56.0133198,125.393941 56.1847937,125.71253 56.1847937,125.818893 C56.1847937,125.924756 56.1052695,126.110517 56.1450316,126.242846 C56.0923469,126.296277 56.0794242,126.349209 55.9735577,126.349209 C55.8676912,126.349209 55.8547685,126.256828 55.7886641,126.176432 L55.7886641,126.176432 L55.7225597,126.242846 C55.9735577,126.601383 56.0923469,126.521986 56.0923469,126.800127 C56.0923469,126.90649 56.0133198,127.264528 56.0133198,127.370891 C56.0133198,127.476754 56.0923469,127.476754 56.0923469,127.583117 C56.0923469,127.68948 55.7623217,128.445005 55.7623217,128.551368 C55.7623217,128.657231 56.1321089,129.201529 56.1321089,129.307892 C56.1321089,129.413755 56.0525848,129.599515 56.0525848,129.705878 C56.0525848,129.811742 56.2245557,130.129831 56.2245557,130.236194 C56.2245557,130.342057 55.9735577,130.594232 55.9735577,130.700595 C55.9735577,130.806958 56.0525848,130.779992 56.0525848,130.886355 C56.0525848,130.992219 55.9735577,131.032167 55.9735577,131.13853 C55.9735577,131.23141 56.3562676,131.761726 56.3562676,131.868089 C56.3562676,131.960469 56.3170025,132.239609 56.2638208,132.464819 C56.0923469,132.51825 55.8150065,132.51825 55.70914,132.51825 C55.6037705,132.51825 55.5640084,132.783408 55.4188769,132.836339 C55.1678788,132.916236 54.8641961,132.836339 54.573933,132.902754 C54.4680665,132.92922 54.4024591,133.035582 54.3229349,133.048566 C54.0719369,133.088514 53.6097029,133.194378 53.5043334,133.194378 C53.226993,133.194378 52.9098905,132.716993 52.6723122,132.597647 C52.7120742,132.292541 52.7911013,132.000917 52.804521,131.695312 C52.9496526,131.682328 53.0684417,131.73526 53.226993,131.73526 C53.226993,131.708794 53.266755,131.668846 53.266755,131.509551 C53.1479659,131.483085 52.9894146,131.523034 52.8572058,131.523034 C52.8179407,131.470102 52.764759,131.483085 52.764759,131.377222 C52.764759,131.271359 52.9759949,130.660646 52.9759949,130.554783 C52.9759949,130.44842 52.804521,130.26266 52.804521,130.156796 C52.804521,130.063916 52.8572058,130.024467 52.9362329,129.984019 C52.9362329,129.958053 52.8572058,129.891639 52.8179407,129.838207 C52.804521,129.453704 52.6857318,128.830008 52.6857318,128.724145 C52.6857318,128.617782 52.6857318,128.484953 52.7384166,128.352624 C52.8179407,128.299193 53.015757,128.259245 53.015757,128.153381 C53.015757,128.047518 52.9233102,127.357408 52.8706255,126.986387 C52.8437861,126.945939 52.764759,126.90649 52.7120742,126.853558 C52.804521,126.5884 52.9233102,126.1235 52.9233102,126.017637 L52.9233102,126.017637 L52.9233102,125.460356 C52.9233102,125.354492 53.0023373,125.406925 53.0023373,125.30156 C53.0023373,125.208181 52.7518363,124.783729 52.7518363,124.677366 C52.7518363,124.572002 52.9496526,124.42569 52.9894146,124.292862 C53.0286797,124.173516 53.0947841,123.988255 53.0947841,123.881892 C53.0947841,123.775529 52.8835481,123.563303 52.8835481,123.45694 C52.8835481,123.351077 53.015757,122.992539 53.0555191,122.780813 C53.015757,122.237014 53.0555191,122.197066 53.0555191,122.157117 C53.015757,122.07722 52.9759949,121.918425 52.9759949,121.812062 C52.9759949,121.546905 53.266258,121.838528 53.266258,121.388109 C53.266258,121.281747 53.1872309,121.095986 53.1872309,120.989624 C53.1872309,120.538206 53.5172561,120.472291 53.5172561,119.91501 C53.5172561,119.808647 53.4511516,119.808647 53.4118866,119.782681 C53.3984669,119.583438 53.3194398,119.2254 53.3194398,119.119536 C53.3194398,118.959742 53.3328595,118.920293 53.5704378,118.654636 C53.4909137,118.62817 53.4248093,118.588222 53.3194398,118.575238 C53.3587048,118.350029 53.3587048,118.203718 53.3587048,118.097854 C53.3587048,117.991492 53.5833605,117.912094 53.689227,117.885628 C53.5704378,117.739317 53.1872309,117.43471 53.1872309,117.328347 C53.1872309,117.221984 53.3855442,117.142587 53.4248093,117.049707 C53.4645713,116.943344 53.5172561,116.811015 53.5172561,116.704652 C53.5172561,116.598788 53.438229,116.426011 53.438229,115.630038 C53.438229,115.537158 53.5704378,115.45776 53.5704378,115.351897 C53.5704378,115.245534 53.438229,115.099722 53.438229,114.99336 C53.438229,114.886997 53.5704378,114.886997 53.5704378,114.781133 C53.5704378,114.674771 53.4909137,114.502493 53.4909137,114.39663 C53.4909137,114.290267 53.5704378,114.330215 53.5704378,114.223852 C53.5704378,114.078041 53.3194398,113.998643 53.3194398,113.7994 C53.3194398,113.693037 53.3587048,113.587174 53.3721245,113.494294 C53.4248093,113.494294 53.477991,113.573691 53.5435984,113.61364 C53.5704378,113.573691 53.5704378,113.61364 53.5704378,113.507277 C53.5704378,113.401413 53.5306758,113.401413 53.4511516,113.308533 C53.477991,113.043375 53.3984669,112.220437 53.3984669,112.207454 C53.3984669,112.074625 53.4511516,111.822451 53.5570181,111.610724 C53.6097029,111.530827 53.5435984,111.252186 53.7021497,111.199255 C53.6628846,111.172789 53.6231226,111.13284 53.5833605,111.079909 C53.6231226,110.641974 53.6231226,110.191055 53.5833605,109.739638 C53.5570181,109.739638 53.477991,109.700189 53.438229,109.700189 C53.4118866,109.739638 53.4118866,109.726654 53.4118866,109.833017 C53.4118866,109.938881 53.4909137,110.018278 53.4909137,110.111658 C53.0818614,110.509145 53.0818614,111.146323 52.7911013,111.663655 C52.8179407,111.822451 52.7254939,111.968262 52.6857318,112.128056 C52.6062077,112.220437 52.5271806,112.220437 52.4476565,112.260386 L52.4476565,112.260386 L52.4476565,112.459629 C52.4476565,112.565991 52.5271806,112.526043 52.5271806,112.631906 C52.5271806,112.73777 52.4213141,112.831149 52.3686294,112.937013 C52.3288673,113.003427 52.3686294,113.149738 52.342287,113.229136 C52.3106762,113.308533 52.2457845,113.388111 52.173163,113.464848 L52.0251845,113.61364 C52.0386042,113.680054 52.1573934,113.746468 52.1573934,113.852332 C52.1573934,113.958695 52.0783663,114.170421 52.0122619,114.290267 C51.9595771,114.383147 51.8537106,114.422596 51.7876062,114.502493 C51.7741865,114.621839 51.7876062,114.794616 51.7612638,114.913962 C51.668817,115.219068 51.4441613,115.709935 51.4441613,115.815799 C51.4441613,115.921662 51.5236855,115.921662 51.5236855,116.028025 C51.5236855,116.134388 51.4839234,116.306665 51.4839234,116.413028 C51.4839234,116.638237 51.2726874,117.089156 51.1802406,117.195519 C51.0480317,117.208502 50.9163199,117.182535 50.7975307,117.221984 C50.6916642,117.261933 50.5992174,117.420728 50.4938479,117.420728 C50.3879814,117.420728 50.3089543,117.288399 50.2691923,117.208502 L50.2691923,117.208502 L50.1638228,117.208502 L50.0842987,117.288399 L50.0842987,117.394761 C50.110641,117.381279 50.2165075,117.394761 50.2557726,117.460676 C50.0579563,117.407745 49.7408538,117.633454 49.5430375,117.633454 C49.437171,117.633454 48.7110163,117.514107 48.6051498,117.514107 C48.4997803,117.514107 48.4600183,117.593505 48.3546488,117.593505 C48.0773084,117.593505 48.1299931,117.089156 48.1299931,117.022741 C48.1299931,116.916878 48.0112039,116.293183 48.0112039,116.187319 C48.0112039,116.094439 48.2224399,115.908679 48.2224399,115.815799 C48.2224399,115.722918 48.1563355,115.709935 48.1170704,115.696453 C48.050966,115.630038 48.050966,115.510692 48.050966,115.404329 C48.050966,115.298466 48.090231,114.874014 48.090231,114.76815 C48.090231,114.661787 48.1434128,114.58239 48.2224399,114.502493 L48.2224399,114.502493 L48.2224399,114.39663 L48.1170704,114.290267 C48.090231,114.316733 47.9848616,114.409613 47.8924148,114.409613 C47.8472564,114.330001 47.8408052,113.266068 47.8398836,112.905221 L47.83973,112.791201 C47.83973,112.73777 47.9187571,112.684838 47.9187571,112.578975 C47.9187571,112.472612 47.7472832,112.247402 47.7338635,112.088108 C47.6811788,112.048159 47.628494,112.008211 47.5226275,112.008211 C47.3248113,112.008211 47.3640763,112.180988 46.9942891,112.366748 C46.6642639,112.526043 46.2288693,112.459629 46.0703181,112.764735 C45.2909816,112.764735 45.5156372,113.149738 44.9082717,113.149738 C44.8029022,113.149738 44.4062756,113.069342 44.3009061,113.069342 C44.1950396,113.069342 43.9311189,113.096307 43.759148,113.122773 C43.7064632,113.135756 43.6537785,113.282067 43.548409,113.282067 C43.2183839,113.282067 43.1915445,112.764735 43.1915445,112.73777 C43.1915445,112.631906 43.2313065,112.313817 43.2313065,112.207454 C43.2313065,111.544309 43.6537785,110.681922 43.6935406,110.204039 C43.6935406,110.204039 43.7328056,110.177573 43.6274361,110.177573 C43.3237533,110.177573 42.7163878,110.841217 42.5975986,110.920614 C42.3992853,111.052943 42.1482873,111.03996 41.9638907,111.159306 C41.8316818,111.252186 41.7789971,111.464912 41.5941035,111.597241 C41.4489719,111.716587 41.2372389,111.716587 41.0921074,111.796484 C40.603531,112.074625 40.1149546,112.234419 39.5866161,112.60544 C39.4941693,112.671855 39.2963531,112.60544 39.1248791,112.631906 C39.0716974,112.645389 39.005593,112.73777 38.9131461,112.777718 C38.7153299,112.870598 38.4777515,112.897564 38.2799352,112.976961 C38.0682022,113.069342 37.8440436,113.282067 37.5667032,113.374948 C37.3688869,113.441362 37.0910495,113.308533 36.8932332,113.361465 C36.7878637,113.387931 36.7481016,113.547225 36.6029701,113.627122 C36.4836839,113.680054 36.2987903,113.653089 36.1800011,113.693037 C36.0746316,113.732986 35.9821848,113.89228 35.8763183,113.89228 C35.7843686,113.89228 35.5199508,113.785917 35.2952951,113.772934 C35.0447941,113.746468 34.7803764,113.812883 34.1203261,113.719503 C33.9488522,113.693037 33.8166433,113.414896 33.6580921,113.268585 C33.6446724,113.189187 33.6446724,113.149738 33.6446724,113.043375 C33.6446724,112.937013 33.7768812,112.247402 33.7768812,112.14104 C33.7768812,111.91583 34.0671443,111.73007 34.0671443,111.63669 L34.0671443,111.63669 L34.0671443,111.490878 C34.3579044,111.490878 34.4240089,111.052943 34.542798,110.920614 C34.5691404,110.907131 34.6615872,110.867682 34.7276916,110.787785 C34.7406143,110.748336 34.7013493,110.76132 34.7013493,110.654957 C34.7013493,110.549593 34.926005,110.403282 35.0313744,110.323385 C35.0447941,110.283936 35.0050321,110.231004 35.0050321,110.124641 C35.0050321,110.018278 35.0050321,109.965846 35.0577168,109.899432 C35.2291907,109.66024 35.5065311,109.487962 35.6919218,109.235788 C35.8102139,109.182856 35.9687651,109.222305 36.0875543,109.155891 C35.9687651,109.089976 35.7441095,109.010079 35.63874,109.010079 L35.63874,109.010079 L35.0974789,109.010079 C35.0050321,108.917199 34.9786897,108.798352 34.8728232,108.798352 C34.7674537,108.798352 34.4105892,108.970131 34.3052197,108.970131 C34.1993532,108.970131 34.1203261,108.87775 34.0144596,108.850784 C33.8827477,108.824319 33.7505389,108.904216 33.6317497,108.864267 C33.4995408,108.824319 33.3544093,108.704973 33.1695157,108.638558 C33.0109644,108.585627 32.8131482,108.532695 32.5884925,108.519212 C32.3374944,108.492746 32.0472314,108.532695 31.7569683,108.492746 C31.5059702,108.452798 31.2152101,108.333452 30.9115273,108.320469 C30.8588426,108.294003 30.8459199,108.214605 30.7400534,108.214605 L30.7400534,108.214605 L30.1326879,108.214605 C30.0929258,108.294003 30.0138987,108.320469 30.0138987,108.426831 C30.0138987,108.532695 30.0531637,108.479763 30.0665834,108.492746 C30.0929258,108.665524 30.0531637,108.824319 30.0800031,108.997096 C30.1063455,109.155891 30.1853726,109.395082 30.1853726,109.500946 C30.1853726,109.607308 30.3041618,109.607308 30.3041618,109.713671 C30.3041618,109.819535 30.2648967,110.031761 30.2648967,110.137624 C30.2648967,110.243987 30.1456105,110.429747 30.1456105,110.535611 C30.1456105,110.641974 30.2648967,110.575559 30.2648967,110.681922 C30.2648967,110.787785 30.1326879,110.973546 30.0929258,111.092892 C30.1192682,111.13284 30.211715,111.212737 30.2380573,111.265669 C30.251477,111.530827 30.2912391,111.783001 30.3041618,112.021694 C30.3175815,112.339783 30.5417401,112.857615 30.5417401,112.963478 C30.5417401,113.069342 30.4229509,113.255102 30.3831889,113.427879 C30.3439238,113.600656 30.3305041,113.825866 30.3305041,113.932229 C30.3305041,114.038092 30.3175815,114.236836 30.6212643,114.210869 C30.6605293,114.608356 30.7927382,115.298466 30.7927382,115.404329 C30.7927382,115.510692 31.0039741,115.683469 31.0039741,115.789333 L31.0039741,115.789333 L31.0039741,116.173837 C30.8722623,116.227268 30.7002914,116.280199 30.5815022,116.280199 C30.5024751,116.399545 30.4229509,116.519391 30.3305041,116.638237 C30.251477,116.65172 30.1192682,116.65172 30.0402411,116.665203 C30.000479,116.691169 29.9870593,116.811015 29.9214519,116.863946 C29.7763203,116.983292 29.5914267,117.036723 29.4328755,117.15557 C29.4328755,117.182535 29.4328755,117.261933 29.4721405,117.354314 C29.4299927,117.407445 29.3623972,117.418071 29.0802774,117.420197 L28.8255099,117.420728 C28.7330631,117.420728 28.653539,117.500625 28.5481695,117.500625 C28.4557227,117.500625 28.3100942,117.487142 28.231067,117.447693 C28.1386202,117.394761 28.0332508,117.288399 28.0198311,117.195519 C27.9934887,116.996775 27.8876222,116.611772 27.8876222,116.505409 C27.8876222,116.399545 28.0198311,116.081456 28.0198311,115.975093 C28.0198311,115.86923 27.8085951,115.006343 27.8085951,114.900479 C27.8085951,114.621839 27.7951754,114.449561 28.0595931,114.290267 C27.9934887,114.104506 27.8483572,114.197387 27.729071,114.170421 C27.6768832,114.144455 27.6366242,114.091024 27.5973591,114.051575 C27.557597,113.680054 27.6237015,113.441362 27.5446744,113.083324 L27.5446744,113.083324 L27.6107788,112.591958 C27.6237015,112.658372 27.6500439,112.724786 27.768833,112.764735 C27.7951754,112.724786 27.7951754,112.764735 27.7951754,112.658372 C27.7951754,112.552009 27.5049123,112.180988 27.5049123,112.074625 C27.5049123,111.968262 27.5844364,111.63669 27.5844364,111.530827 C27.5844364,111.424464 27.5446744,111.238704 27.5049123,111.106374 C27.557597,111.052943 27.5446744,111.026977 27.5049123,110.270453 C27.5049123,110.191055 27.6237015,110.084693 27.6237015,109.978829 C27.6237015,109.872466 27.4914926,109.593826 27.518332,109.434531 C27.5049123,109.408066 27.3861231,109.368117 27.3727034,109.315685 C27.306599,108.983613 27.3727034,108.638558 27.3463611,108.306986 C27.3463611,108.227589 27.306599,108.09476 27.306599,107.988896 C27.2802566,107.988896 27.306599,107.948948 27.2012295,107.948948 C27.0163359,107.948948 26.7653379,108.559161 26.7389955,108.78437 C26.3428659,108.917199 26.5406822,109.222305 26.4089704,109.500946 C26.382628,109.540894 26.2901812,109.580843 26.2638388,109.620292 C26.2374964,109.899432 25.920394,110.323385 25.920394,110.35035 C25.920394,110.456213 26.0923649,110.641974 26.0923649,110.748336 C26.0923649,111.212737 25.5242644,111.013494 25.4318176,111.384516 C25.4188949,111.437947 25.4581599,111.424464 25.4581599,111.530827 C25.4581599,111.63669 25.3657131,111.809467 25.3527905,111.928813 C25.1017924,112.101091 25.1544772,112.313817 24.9561639,112.446146 C24.9561639,112.485595 24.9959259,112.526043 24.9959259,112.631906 C24.9959259,112.73777 24.8378717,112.804184 24.8378717,112.897564 C24.8771368,113.560708 23.9924308,114.528959 23.4114076,114.714719 C23.226514,114.781133 22.8567268,114.980376 22.7513573,114.980376 C22.6589105,114.980376 22.0381252,114.728202 21.6554153,114.58239 C21.6027306,114.462544 21.5629685,114.290267 21.5763882,114.144455 C20.9685256,114.595373 20.3084753,115.099722 19.7145295,115.550641 C19.6215856,115.577107 19.5425585,115.523675 19.4635314,115.537158 C19.3049802,115.683469 19.1598487,115.96161 18.9222703,116.094439 C18.472959,116.346614 17.7731466,116.571823 17.2845702,117.009758 C17.1528584,117.142587 16.703547,117.049707 16.5057307,117.129104 C15.6076051,117.500625 14.683634,118.230184 13.9042975,118.389478 C13.6930616,118.429427 13.3764561,118.880345 13.2705896,118.880345 L13.2705896,118.880345 L12.6503014,118.880345 C12.5444349,118.880345 12.3331989,118.973225 12.1875703,119.053122 C11.8312028,119.238383 11.2238373,119.59692 10.9733362,119.703283 C10.6959958,119.82213 10.3788933,119.849095 10.0881332,119.941476 C9.87739429,120.00789 9.40174057,120.180667 9.16416222,120.180667 C9.05829572,120.180667 8.88682181,120.10077 8.78095531,120.10077 C8.43800749,120.10077 8.46434986,120.472291 7.9494311,120.432842 C7.90966903,120.472291 7.90966903,120.538206 7.89624933,120.591637 C7.81722223,120.644569 7.75111779,120.723966 7.64574832,120.723966 C7.53988181,120.723966 6.97227832,120.392394 6.64225317,120.28703 C6.6159108,120.260065 6.53638667,120.206634 6.53638667,120.10077 C6.53638667,119.994907 6.68151821,119.662835 6.68151821,119.451108 C6.69493791,118.973225 6.81372708,118.402961 7.06472512,117.84568 C7.1700946,117.619971 7.09106749,117.288399 7.1700946,117.049707 C7.28888377,116.65172 7.47377738,116.293183 7.64574832,115.908679 C7.68501336,115.829281 7.61940595,115.709935 7.63232862,115.617055 C7.65867099,115.431295 7.9360114,115.272 8.0284582,115.099722 C8.12090501,114.939929 8.17358975,114.648804 8.08114294,114.39663 C8.17358975,114.30325 8.30579862,114.30325 8.38532275,114.290267 C8.5036149,113.89228 8.87340211,113.653089 8.76803264,113.215653 C8.93950655,113.069342 9.33563613,112.366748 9.33563613,112.366748 C9.33563613,112.260386 9.25660903,112.247402 9.25660903,112.14104 C9.25660903,111.875882 9.929582,111.212737 9.98276376,111.13284 C9.96984109,111.052943 9.96984109,110.920614 9.98276376,110.787785 C10.1149726,110.695405 10.2601042,110.681922 10.3391313,110.535611 C10.4186554,110.389799 10.5240249,110.204039 10.603052,110.045243 C10.5240249,109.978829 10.3262086,109.912415 10.1939997,109.872466 C10.1149726,109.846001 9.98276376,109.713671 9.86397459,109.686706 C9.61297654,109.633774 9.32271346,109.673723 9.07171542,109.66024 C8.76803264,109.647257 8.25311388,109.553877 8.14724738,109.553877 C8.0418779,109.553877 7.71185275,109.633774 7.60598625,109.633774 C7.50011975,109.633774 6.28538862,109.382099 6.18001915,109.382099 C6.07415265,109.382099 5.75705017,109.593826 5.65168069,109.593826 C5.54631122,109.593826 5.49312945,109.500946 5.41410235,109.47448 C5.37434028,109.461497 5.28189348,109.487962 5.20286637,109.47448 C4.93844863,109.421548 4.58208111,109.301703 4.47671164,109.301703 C4.37084513,109.301703 3.94837318,109.47448 3.84250668,109.47448 C3.7371372,109.47448 3.68445246,109.408066 3.40711205,109.382099 C2.85243123,109.328668 2.33751247,109.155891 1.78283165,109.102959 C1.36035969,109.06351 1.22815082,109.155891 1.14912371,109.142908 C1.01691484,109.116442 0.898125672,109.06351 0.792756196,109.06351 C0.700309392,109.06351 0.568100522,109.142908 0.475653718,109.142908 C0.343444847,108.957147 0.119286199,108.890733 0.0531817636,108.704973 C0,108.546177 0,108.294003 0,108.18764 C0,108.081777 0.250998043,107.749705 0.383206914,107.550961 C0.515415784,107.49803 0.686889695,107.524496 0.805678868,107.484547 C1.10936165,107.3657 1.39962473,107.192923 1.67696514,107.020146 C1.80917401,106.940749 1.98064793,106.701557 2.08651443,106.701557 C2.19238093,106.701557 2.15261886,106.781954 2.25798834,106.781954 C2.32409277,106.781954 2.93145834,106.688574 3.10342927,106.463365 C3.44687412,106.423416 3.69737514,106.264122 3.93495348,106.131792 C4.21229389,105.972498 4.52939637,105.733307 4.81965946,105.627443 C5.176524,105.494614 5.7441275,105.534563 6.08757234,105.242939 C6.10049502,105.215974 6.14025708,105.123094 6.15367678,105.083145 C6.21978121,104.990765 6.36491276,104.937333 6.48370193,104.884402 C6.73420295,104.778538 7.01154336,104.725107 7.23619903,104.55283 C7.34156851,104.473432 7.43401531,104.261206 7.57964388,104.234241 C7.67209069,104.221257 7.76453749,104.274189 7.8301449,104.247723 C8.05480057,104.154843 8.29287594,103.809788 8.5036149,103.650494 C8.64924346,103.54463 8.88682181,103.558113 9.04537305,103.491699 C9.45442531,103.331905 9.77152778,102.960883 10.0488682,102.682243 C10.141315,102.66876 10.2203421,102.708709 10.2998662,102.695725 C10.4186554,102.629311 10.6164717,102.416586 10.7223382,102.416586 C10.8277077,102.416586 10.7486806,102.496982 10.85405,102.496982 L10.85405,102.496982 L11.4350732,102.496982 C11.699491,102.350671 11.7650984,102.204859 12.0295161,102.204859 C12.1348856,102.204859 12.3993033,102.297739 12.5841969,102.297739 C12.7029861,102.974366 13.0066689,102.722191 13.0066689,103.17311 C13.0066689,103.279472 12.8878797,103.504682 12.8217753,103.677459 C12.7029861,103.716908 12.5707772,103.716908 12.4519881,103.730391 C12.3461216,103.836254 12.161228,104.181808 12.0692782,104.181808 C11.9634117,104.181808 11.8575452,104.101412 11.7521757,104.101412 C11.5543594,104.101412 10.8411274,104.55283 10.7223382,104.751573 C10.603052,104.817987 10.4847598,105.030713 10.352551,105.056679 C9.78445046,105.202491 9.01853365,105.574511 8.41116809,106.065378 C8.10748531,106.131792 7.75111779,106.250639 7.42109264,106.39695 C7.35498821,106.423416 7.20985666,106.383468 7.13082956,106.423416 C6.64225317,106.701557 6.36491276,107.165958 5.95536347,107.060095 C5.91560141,107.126509 5.87633637,107.205907 5.8365743,107.312269 C6.02146791,107.351719 6.41759749,107.391667 6.52296697,107.391667 C6.62883347,107.391667 6.6024911,107.312269 6.7083576,107.312269 C6.85348915,107.312269 6.98520099,107.524496 7.06472512,107.550961 C7.35498821,107.630858 7.68501336,107.564444 7.97577347,107.577427 C8.0418779,107.657324 8.08114294,107.77667 8.18700944,107.77667 C8.6094814,107.77667 7.61940595,107.736722 9.44150263,107.736722 C9.57321448,107.736722 9.73176572,107.657324 9.83763222,107.657324 C9.94300169,107.657324 10.2601042,107.869051 10.3654736,107.869051 C10.4713401,107.869051 10.5767096,107.789654 10.6825761,107.789654 C10.7884426,107.789654 10.8808894,107.935465 10.9599165,107.948948 C11.1711525,107.975414 11.4221506,108.015362 11.6597289,108.054811 C11.8843846,107.670307 12.0822009,107.285304 12.20099,106.980697 C12.2934368,106.742005 12.5707772,106.555745 12.7556709,106.436399 C12.7029861,105.93205 13.3630364,105.4287 13.4952453,104.911367 C13.8516128,104.937333 13.8381931,104.55283 13.970402,104.32762 C14.2348197,104.247723 14.2606651,104.088429 14.3928739,103.863219 C14.4192163,103.849737 14.5116631,103.823271 14.5648449,103.730391 C14.683634,103.531647 14.7363188,103.26599 14.8024232,103.066747 C14.855108,102.907952 15.0265819,102.788606 15.1587907,102.642794 C15.2512375,102.536431 15.4758932,101.913235 15.7661563,102.032082 C15.8720228,101.846821 15.990812,101.607629 16.0698391,101.38192 C16.1225238,101.276057 16.0961814,101.050348 16.1886283,100.957967 C16.3471795,100.798174 16.6245199,100.731759 16.7433091,100.546498 C16.8620982,100.360738 16.9411254,100.108563 17.0335722,99.8828545 C17.0604116,99.8034569 17.0469919,99.7105768 17.0604116,99.6306798 C17.2055431,99.5512823 17.2716475,99.4184537 17.2582278,99.2861244 C17.3506746,99.2326933 17.4297017,99.2726418 17.5092259,99.2197101 C17.6016727,99.0339497 17.8129087,98.7687918 17.9714599,98.6094973 L17.9714599,98.6094973 L17.9714599,98.5031346 C17.9316978,98.4771681 17.9053555,98.4771681 17.799489,98.4771681 C17.6941195,98.4771681 17.3243323,98.5565656 17.2189628,98.5565656 C17.1130963,98.5565656 17.0072298,98.4771681 16.9018603,98.4771681 L16.9018603,98.4771681 L16.3208371,98.4771681 C16.2149706,98.4771681 16.24181,98.5565656 16.2020479,98.5830315 C16.0832588,98.5960147 15.9510499,98.6359632 15.8451834,98.6359632 C15.7398139,98.6359632 15.1722104,98.423737 15.0663439,98.423737 C14.9609745,98.423737 14.2348197,98.6759116 14.1289532,98.6759116 C14.0230867,98.6759116 13.759166,98.5031346 13.6537965,98.5031346 C13.5613497,98.5031346 13.5345103,98.5830315 13.4291409,98.5830315 C13.336694,98.5830315 13.3103517,98.4107537 13.2044852,98.4107537 C13.0986187,98.4107537 13.085696,98.4502028 13.046431,98.4771681 C12.9142221,98.4901513 12.7820132,98.4372196 12.6632241,98.4631861 C12.6105393,98.4771681 12.5310152,98.5960147 12.4519881,98.6094973 C12.2407521,98.6359632 11.9897541,98.6094973 11.7785181,98.6094973 C11.699491,98.6094973 11.6333865,98.6629284 11.52752,98.6629284 C11.4221506,98.6629284 11.026021,98.4502028 10.9201545,98.4502028 C10.814785,98.4502028 10.4449978,98.6229799 10.3391313,98.6229799 C10.2337618,98.6229799 10.0091061,98.2914077 9.90373665,98.2914077 C9.79787015,98.2914077 9.61297654,98.6759116 9.50711004,98.6759116 C9.40174057,98.6759116 8.83364005,98.4901513 8.55679666,98.3708053 C8.34506366,98.2779251 8.21335181,98.0921648 8.05480057,97.9598355 C8.0418779,97.9064044 8.0418779,97.9064044 8.0418779,97.8000417 C8.0418779,97.4954346 8.41116809,97.4684694 8.66216614,97.4684694 C8.76803264,97.4684694 9.01853365,97.6806956 9.12440016,97.6806956 C9.23026666,97.6806956 9.34905583,97.6142813 9.44150263,97.6012981 C9.61297654,97.5748322 9.82421252,97.6142813 10.0354485,97.6142813 C10.1149726,97.6142813 10.1542377,97.5084179 10.2601042,97.5084179 C10.6164717,97.5084179 10.4579205,97.8000417 11.0389436,97.8000417 C11.4350732,97.8000417 11.7785181,97.6282633 11.8709649,97.6282633 C11.9768314,97.6282633 12.1219629,97.7471099 12.2273324,97.7471099 C12.3331989,97.7471099 12.6632241,97.5748322 12.7685935,97.5748322 C12.87446,97.5748322 13.4157212,97.7870584 13.5215877,97.7870584 C13.6269571,97.7870584 14.643872,97.5348837 14.7497385,97.5348837 C14.855108,97.5348837 15.106106,97.6677124 15.2114755,97.6677124 L15.2114755,97.6677124 L16.4262066,97.6677124 C16.5186534,97.7605925 16.5847578,97.8794392 16.6906243,97.8794392 C16.7959938,97.8794392 16.9943071,97.6941782 17.165781,97.6412465 C17.2845702,97.6142813 17.5092259,97.5878155 17.6145954,97.5878155 C17.7204619,97.5878155 18.1563535,97.8000417 18.261723,97.8000417 C18.8427462,97.8000417 19.2652181,96.7653765 19.4237694,96.3144583 C19.4764541,96.1816297 19.648425,96.1421806 19.7408718,96.048801 C19.7935566,96.0093519 19.9257655,95.6777797 20.1370014,95.7571773 C20.1235817,95.6113654 20.110162,95.4121224 20.1762665,95.2663106 C20.2428679,95.1204987 20.4804463,95.0540844 20.533131,94.9347383 C20.7572897,94.4703375 20.9158409,93.3293096 21.5629685,93.2628953 C21.6027306,93.249912 21.6946804,93.1969803 21.7344424,93.2104629 C21.8139666,93.1570319 21.9327557,92.9847541 22.0381252,92.9847541 L22.0381252,92.9847541 Z M15.1190287,109.991812 C15.0136592,109.991812 14.9873168,110.07121 14.9475548,110.098175 C14.7497385,110.111658 14.5380055,110.058227 14.3665316,110.084693 C14.2740848,110.098175 14.2606651,110.164589 14.1552956,110.164589 C14.0499261,110.164589 13.9838217,110.045243 13.8779552,110.045243 C13.7720887,110.045243 13.3764561,110.177573 13.1388778,110.191055 C13.046431,110.310401 12.9271448,110.429747 12.7954329,110.522628 C12.9405645,110.986529 12.5046728,111.345066 12.5046728,111.544309 C12.5046728,111.91583 12.412226,111.968262 12.0031738,112.286851 C12.0692782,112.539026 11.7919378,112.631906 11.7258333,112.831149 C11.6726516,112.989944 11.7124136,113.175705 11.6597289,113.29555 C11.4619126,113.772934 10.8808894,114.608356 10.8808894,114.714719 C10.8808894,114.926945 10.8674697,114.900479 10.7352609,115.272 C10.6164717,115.617055 10.352551,116.001559 10.2203421,116.399545 C10.0488682,116.903395 9.929582,117.514107 9.67908098,117.991492 L9.67908098,117.991492 L9.67908098,118.389478 C9.75810809,118.296598 9.77152778,118.336546 9.77152778,118.336546 C9.86397459,118.350029 9.929582,118.389478 10.0354485,118.389478 C10.141315,118.389478 10.4579205,118.150786 10.6298914,118.110838 C10.8277077,118.070889 11.0916284,118.018457 11.2899417,117.952042 C11.3297038,117.779265 11.5543594,117.712851 11.7124136,117.712851 C11.7650984,117.686385 11.8446225,117.593505 11.8843846,117.567039 C12.1746477,117.553557 12.4654078,117.420728 12.7685935,117.407745 C13.046431,117.142587 13.54793,116.87693 13.9838217,116.598788 C14.2079803,116.452976 14.5380055,116.426011 14.7755838,116.319649 C15.2383149,116.094439 15.7134716,115.86923 16.1096011,115.683469 C16.3342568,115.577107 16.5320731,115.497709 16.6906243,115.431295 C16.9411254,115.324932 17.2055431,115.166137 17.4038564,115.046291 C17.4963032,114.99336 17.5753303,114.847548 17.6543574,114.794616 C17.7731466,114.76815 17.8924328,114.76815 17.9848796,114.794616 C18.1300111,114.635322 18.1826959,114.436079 18.2880654,114.356681 C18.5788255,114.144455 18.9486127,114.011626 19.2522955,113.772934 C19.5032935,113.573691 19.859661,113.600656 20.1235817,113.454345 C20.2428679,113.387931 20.3482374,113.215653 20.4143418,113.083324 C20.4670266,112.963478 20.493369,112.817667 20.5858158,112.764735 C20.744367,112.658372 20.9819453,112.618424 21.1270769,112.526043 C21.3914946,112.366748 21.629073,112.034677 21.8268892,111.849416 C21.8532316,111.73007 21.8929937,111.623707 21.8005469,111.530827 C21.8005469,111.119358 21.4307597,111.318601 21.2856281,110.960563 C21.1539163,111.000511 21.0082877,111.079909 20.9029182,111.079909 C20.7970517,111.079909 20.7572897,110.960563 20.6653399,110.881165 C20.5728931,110.867682 20.4670266,110.827734 20.3611601,110.827734 C20.2557906,110.827734 19.6350053,110.787785 19.5291388,110.787785 C19.4237694,110.787785 19.2786378,110.774802 19.2259531,110.841217 C18.974955,111.119358 18.6583496,111.424464 18.6051678,111.809467 C18.4863787,112.711803 17.9316978,113.573691 17.0996766,114.210869 C16.9943071,114.290267 16.8357559,114.263801 16.7696514,114.316733 C16.6111002,114.449561 16.4793884,114.701736 16.3601022,114.860531 L16.3601022,114.860531 L15.7000519,114.860531 C15.6076051,114.860531 15.4097888,114.820583 15.2909996,114.807599 C14.9609745,114.542441 15.2775799,114.236836 14.9738971,113.958695 C15.1324484,113.70652 15.4361311,113.640106 15.4361311,113.374948 C15.4361311,113.268585 15.3968661,113.215653 15.4361311,113.175705 C15.4888159,113.135756 15.528578,113.122773 15.5549203,113.083324 C15.6210248,112.950495 15.6737095,112.817667 15.6871292,112.73777 C15.7134716,112.565991 15.7134716,112.339783 15.8193381,112.207454 C15.8720228,112.14104 15.9773923,112.168005 16.0698391,112.114574 C16.0832588,111.610724 16.1622859,111.822451 16.1622859,111.73007 C16.1622859,111.623707 16.0832588,111.650672 16.0832588,111.544309 C16.0832588,111.437947 16.2944948,111.332083 16.2944948,111.22572 C16.2944948,111.119358 16.2149706,110.973546 16.2149706,110.867682 C16.2149706,110.774802 16.4659687,110.496162 16.4659687,110.389799 C16.4659687,110.297418 16.3735219,110.204039 16.2810751,110.164589 C16.1886283,110.217022 16.1622859,110.297418 16.0569164,110.297418 C15.9510499,110.297418 15.5812627,110.177573 15.3700267,110.151107 C15.2909996,110.137624 15.2248952,109.991812 15.1190287,109.991812 Z M38.4514092,109.421548 C38.3455427,109.421548 38.0945446,109.461497 37.9230707,109.47448 C37.8306239,109.540894 37.7381771,109.686706 37.7118347,109.766603 C37.6720727,109.965846 37.5403608,110.191055 37.3420475,110.389799 C37.1571539,110.562576 37.0120224,111.079909 36.9329952,111.305118 C36.8932332,111.398498 36.774444,111.477895 36.774444,111.584258 C36.774444,111.676639 36.774444,111.650672 36.8271287,111.703105 L36.8271287,111.703105 L37.2892224,111.702976 C37.480552,111.690042 38.1543948,111.54406 38.5175136,111.398498 C38.9926703,111.212737 39.4414846,110.960563 39.8376142,110.76132 C39.9434807,110.708388 39.9961654,110.535611 40.1020319,110.496162 C40.3659526,110.389799 40.8281867,110.297418 41.0130803,110.031761 C40.814767,109.819535 40.5379236,109.912415 40.3659526,109.899432 C40.2735058,109.899432 40.1547167,109.766603 40.0488502,109.766603 C39.9434807,109.766603 39.9434807,109.846001 39.8376142,109.846001 C39.7322447,109.846001 38.5567786,109.421548 38.4514092,109.421548 Z M47.2850492,107.683291 C47.2060221,107.816619 47.0738132,108.108242 47.0474709,108.240572 C46.8754999,108.3734 46.6776836,108.771387 46.6776836,108.970131 C46.6776836,109.076493 46.7174457,109.222305 46.704026,109.301703 C46.6776836,109.342151 46.5981595,109.421548 46.5588945,109.47448 C46.5454748,109.647257 46.5588945,109.806052 46.5325521,109.978829 C46.5191324,110.058227 46.3605812,110.137624 46.3471615,110.231004 C46.3213161,110.483178 46.2154496,110.841217 46.2154496,110.94708 C46.2154496,111.052943 46.2681344,111.052943 46.2681344,111.052943 L46.3045726,111.059185 C46.3392401,111.070421 46.3736281,111.092892 46.453028,111.092892 C46.5588945,111.092892 47.2060221,110.800769 47.5489699,110.695405 C47.628494,110.615508 47.6414167,110.562576 47.6414167,110.456213 C47.6414167,110.35035 47.4833625,109.713671 47.4962852,109.620292 C47.4962852,109.514428 47.7075212,108.890733 47.7075212,108.78437 C47.7075212,108.678507 47.5753123,108.612592 47.5753123,108.506229 C47.5753123,108.400366 47.6548364,108.360417 47.6548364,108.254054 C47.6548364,108.081777 47.377496,107.922482 47.4436004,107.736722 C47.377496,107.723239 47.3377339,107.683291 47.2850492,107.683291 Z M22.2498582,106.330536 C21.9327557,106.542762 21.6419956,106.662108 21.5232065,106.887817 C21.3914946,107.139492 21.4044173,107.537479 21.2463631,107.803136 C21.1141542,108.015362 20.5460537,108.506229 20.5460537,108.744921 C20.5460537,108.850784 20.5992355,108.87775 20.6121581,108.917199 C20.8233941,108.984112 21.0082877,108.997096 21.2329434,109.089976 C21.3119705,109.129924 21.4044173,109.06351 21.4441794,109.076493 C21.5629685,109.142908 21.6419956,109.222305 21.7344424,109.315685 L21.7344424,109.315685 L21.9988602,109.315685 C22.0515449,109.222305 22.091307,109.089976 22.091307,108.984112 C22.091307,108.87775 22.0117829,108.665524 22.0117829,108.559161 C22.0117829,108.452798 22.0778873,107.988896 22.1439917,107.697273 C22.1703341,107.59091 22.3154656,107.484547 22.3288853,107.40515 C22.3552277,107.285304 22.3552277,107.073577 22.342305,106.953732 C22.342305,106.847869 22.302543,106.555745 22.2498582,106.330536 Z M40.4718191,106.609177 C40.0751925,106.609177 40.0886122,106.953732 39.6397979,107.086561 C39.5866161,107.166458 39.4549043,107.299286 39.4549043,107.40515 C39.4549043,107.616876 39.6790629,107.697273 39.9037186,107.697273 L39.9037186,107.697273 L40.5245039,107.697273 C40.6298734,107.697273 41.1055271,107.763188 41.3560281,107.829602 C41.4355522,107.856068 41.5414187,108.015362 41.6467882,108.015362 C42.3992853,108.068294 43.1388597,108.18764 43.9047765,108.824319 C43.9574613,108.771387 43.9972233,108.771387 43.9972233,108.771387 C44.1025928,108.546177 44.1686973,108.134708 44.3138288,108.015362 C44.3933529,108.054811 44.47238,108.054811 44.5782465,108.09476 C44.47238,107.445098 44.7233781,107.418133 44.7233781,107.126509 C44.7233781,107.020146 44.683616,107.020146 44.6701963,106.967215 C44.3933529,106.99368 44.1423549,107.020146 43.9047765,106.940749 C43.6537785,106.861351 43.297411,106.701557 43.1915445,106.701557 C43.085678,106.701557 43.0464129,106.781954 42.9405464,106.781954 C42.835177,106.781954 42.835177,106.701557 42.7293105,106.701557 C42.623941,106.701557 42.5841789,106.821403 42.4788094,106.821403 C42.3729429,106.821403 42.1224419,106.701557 42.0165754,106.701557 C41.9107089,106.701557 41.6467882,106.80792 41.1845542,106.781954 C40.9206335,106.767972 40.5771886,106.609177 40.4718191,106.609177 Z M18.7105373,101.395403 C18.4863787,101.740458 18.3412471,102.059047 18.1165914,102.310722 C18.050487,102.390619 17.9187752,102.364153 17.8263284,102.377136 C17.7731466,102.549414 17.7338816,102.76214 17.6806998,102.920935 C17.6280151,103.093712 17.4431214,103.066747 17.337752,103.120178 C17.1130963,103.305938 17.3243323,103.863219 16.8620982,103.969083 C16.9018603,104.314137 16.5057307,104.870919 16.3079145,105.14956 C16.2547327,105.229457 16.0832588,105.255922 16.0434967,105.362285 C15.9510499,105.561029 15.9376302,105.839669 15.8451834,106.038413 C15.7398139,106.264122 15.4490538,106.264122 15.3307617,106.344019 C15.317342,106.383468 15.2383149,106.409934 15.2383149,106.515797 C15.2383149,107.020146 15.0136592,106.967215 14.683137,107.643842 C14.643872,107.736722 14.5116631,107.763188 14.4987404,107.816619 C14.4723981,107.896016 14.4853207,108.041828 14.432636,108.108242 C14.3928739,108.174657 14.2875045,108.267038 14.1950577,108.360417 C14.2875045,108.3734 14.3138468,108.333951 14.4192163,108.333951 C14.5250828,108.333951 14.5648449,108.452798 14.6702143,108.452798 C14.7626612,108.452798 14.7890035,108.333951 14.89487,108.333951 C15.0002395,108.333951 15.0265819,108.360417 15.0797636,108.413349 C15.1324484,108.413349 15.1722104,108.3734 15.6344445,108.413349 C15.990812,108.360417 16.4132839,108.532695 16.7303864,108.532695 C16.8228332,108.28102 17.1130963,107.869051 17.1130963,107.763188 C17.1130963,107.657324 17.0335722,107.577427 17.0335722,107.471065 C17.0335722,107.3657 17.1130963,107.139492 17.1921234,106.980697 C17.3114096,106.980697 17.377017,107.060095 17.4828835,106.887817 C17.5092259,106.794937 17.4565411,106.715539 17.4694638,106.675591 C17.5221485,106.555745 17.6280151,106.423416 17.6677771,106.330536 C17.6145954,106.237656 17.4963032,106.21119 17.4963032,106.104827 C17.4963032,105.998964 17.5355682,105.653909 17.6677771,105.468149 C17.7865663,105.282888 17.9316978,105.176525 17.9714599,105.043696 C18.0107249,104.884402 17.9714599,104.699141 18.0107249,104.579295 C18.0902491,104.353587 18.3149047,104.022014 18.3149047,103.915652 C18.3149047,103.239524 18.261723,103.756856 18.4863787,102.722191 C18.4997984,102.642794 18.6315102,102.536431 18.6712723,102.456534 C18.8034811,102.191376 18.8561659,101.727475 18.8561659,101.621112 C18.8561659,101.514749 18.7637191,101.448335 18.7105373,101.395403 Z M26.4617545,95.6247481 C26.7390949,95.6247481 26.9374082,96.0357179 26.9374082,96.1550639 C26.9374082,96.2614267 26.8449614,96.5665331 26.7520176,96.7128443 C26.6729905,96.8187077 26.4746772,96.9380538 26.3693077,96.9380538 C26.2639382,96.9380538 26.2768609,96.8981053 26.2370988,96.8586562 C26.1183097,96.8451736 25.9861008,96.8846227 25.8543889,96.8716394 C25.8017042,96.7922419 25.6297333,96.6858791 25.6297333,96.5795163 C25.6297333,96.4736529 25.7221801,96.4337044 25.7882845,96.3543069 C25.8017042,96.2749093 25.7619421,96.1955117 25.7619421,96.089149 C25.7753618,95.7176283 26.2370988,95.6247481 26.4617545,95.6247481 Z M29.3138378,95.4521208 C29.4197043,95.4521208 29.5777585,95.5050525 29.6970447,95.5455004 C29.7497295,95.5584836 30.1324394,96.0628329 30.1324394,96.2216281 C30.1324394,96.3279908 30.0926773,96.3944051 30.0668319,96.486786 C29.9082807,96.6196146 29.7363098,96.8318408 29.6309403,96.8318408 C29.5250738,96.8318408 29.5116541,96.7124948 29.4062846,96.7124948 C29.3009151,96.7124948 29.2611531,96.7923917 29.1552866,96.7923917 C29.0499171,96.7923917 28.9047856,96.6990122 28.8123388,96.6066313 C28.7328146,96.5267344 28.6403678,96.2745598 28.6403678,96.1686963 C28.6403678,96.0628329 28.6801299,95.9429875 28.7462343,95.8900558 C28.8913659,95.7836931 29.0628398,95.6248979 29.1687063,95.5050525 C29.1816289,95.4920693 29.2084683,95.4521208 29.3138378,95.4521208 Z" id="stussy"></path>
                    </g>
                </g>
            </g>
        </g>
    </g>
</svg>