<?xml version="1.0" encoding="UTF-8"?>
<svg width="57px" height="21px" viewBox="0 0 57 21" version="1.1" xmlns="http://www.w3.org/2000/svg" xmlns:xlink="http://www.w3.org/1999/xlink">
    <!-- Generator: Sketch 63.1 (92452) - https://sketch.com -->
    <title>Supreme</title>
    <desc>Created with Sketch.</desc>
    <g id="MSCHFX" stroke="none" stroke-width="1" fill="none" fill-rule="evenodd">
        <g id="Desktop-|-Launch-State" transform="translate(-1075.000000, -127.000000)" fill="#0D00FF">
            <g id="HOMEPAGE" transform="translate(161.000000, 52.000000)">
                <g id="SHIRT-PIECE-MODAL" transform="translate(538.000000, 56.000000)">
                    <g id="BrandLogos" transform="translate(375.699984, 19.549999)">
                        <path d="M56.9636332,0 L56.9636332,20.1048117 L0.837700488,20.1048117 L0.837700488,0 L56.9636332,0 Z M22.3418037,6.15508017 C21.6331932,6.15508017 20.8862534,6.4525371 20.331232,6.95435349 L20.1847938,7.09620932 L20.2881556,6.40206686 L18.2063619,6.40206686 L16.43708,18.0305057 L18.5193589,18.0305057 L19.2336713,13.2737428 L19.2627873,13.2737428 C19.5913127,13.8909707 20.3192126,14.2311148 21.0631263,14.2311148 C23.2201362,14.2311148 24.7521228,12.2236911 25.0641492,10.1541625 C25.3771462,8.16154841 24.4100099,6.15508017 22.3418037,6.15508017 Z M7.64938747,2.03131022 C5.76072994,2.03131022 4.13848377,3.59157814 3.84150062,5.52256495 C3.5585902,7.32886409 4.51068323,8.08558925 5.84904846,8.7028171 C6.68273645,9.05824861 7.69451727,9.39934821 7.51593916,10.6037069 C7.38152032,11.4994516 6.69729444,12.2862738 5.80440394,12.2862738 C4.92293147,12.2862738 4.29163491,11.5744851 4.08407474,10.743957 L4.05016525,10.5869863 L2.41336107,12.0230443 C2.97869664,13.367378 3.97494893,14.2941752 5.52246405,14.2941752 C7.81340758,14.2941752 9.46428448,12.6417053 9.82095542,10.3089471 C10.415407,6.40302232 5.83497573,7.22089699 6.13195888,5.25933542 C6.25084919,4.50356572 7.00980612,3.94700965 7.70907526,3.94700965 C8.38277459,3.94700965 8.83980957,4.26166729 9.16376708,4.77187045 L9.24203239,4.90342618 L10.5051813,3.32978181 C9.93984573,2.54152643 8.64563976,2.03131022 7.64938747,2.03131022 Z M52.56178,6.15412471 C50.197076,6.15412471 48.7538931,7.96137931 48.3967369,10.2626073 C48.0551093,12.5638353 49.1697666,14.2311148 51.4311089,14.2311148 C52.8939229,14.2311148 54.2479671,13.4567383 55.0146297,12.0696154 L55.1201054,11.8673041 L53.2460059,11.5434028 C52.8738064,12.1467765 52.3691292,12.5786449 51.684418,12.5786449 C50.6460741,12.5786449 50.4375416,11.5903803 50.5385837,10.6653419 L50.5542322,10.5411242 L55.3583713,10.5411242 L55.4030158,10.2778947 C55.7451288,7.99195407 54.9565706,6.15412471 52.56178,6.15412471 Z M34.2230707,6.15412471 C31.8573961,6.15412471 30.4151838,7.96137931 30.0585129,10.2626073 C29.7163999,12.5638353 30.8315425,14.2311148 33.0923995,14.2311148 C34.5552136,14.2311148 35.9092577,13.4567383 36.6763424,12.0696154 L36.7818813,11.8673041 L34.9072965,11.5434028 C34.5350971,12.1467765 34.0294493,12.5786449 33.346194,12.5786449 C32.3069217,12.5786449 32.0983488,11.5908174 32.1993892,10.6666532 L32.2150376,10.5411242 L37.019662,10.5411242 L37.0643065,10.2778947 C37.4064194,7.99195407 36.6183465,6.15412471 34.2230707,6.15412471 Z M17.4488608,6.4011114 L15.3660966,6.4011114 L14.7420438,10.5091162 C14.607625,11.374764 14.3106418,12.4090506 13.255187,12.4090506 C12.244229,12.4090506 12.2278015,11.4627468 12.3454966,10.6228843 L12.3622965,10.5091162 L12.9868346,6.40206686 L10.9040704,6.40206686 L10.2198445,10.8650255 C9.87773161,13.073096 10.8007086,14.2311148 12.9722766,14.2311148 C15.0662885,14.2311148 16.3309514,13.1543346 16.7244948,11.0967248 L16.7646349,10.86407 L17.4488608,6.4011114 Z M46.196053,6.15412471 C45.3482923,6.15412471 44.4563723,6.60223595 43.8910367,7.34271827 C43.5343658,6.54060871 42.8792559,6.15412471 41.972778,6.15412471 C41.2966399,6.16419686 40.6531225,6.44844321 40.1782812,6.94136436 L40.0530634,7.08092194 L40.0234621,7.08092194 L40.1277944,6.40206686 L38.0450303,6.40206686 L36.8852431,13.9846059 L38.9680073,13.9846059 L39.5333429,10.2626073 C39.6522332,9.45906453 39.844884,7.8844647 41.0051564,7.8844647 C42.0472761,7.8844647 41.7884279,9.27837996 41.6595781,10.0462926 L41.6442525,10.1388751 L41.0643589,13.9846059 L43.1476083,13.9846059 L43.7129439,10.2626073 C43.8318342,9.47387418 44.0696148,7.8844647 45.200286,7.8844647 C46.1838607,7.8844647 45.9783874,9.14630696 45.8677304,9.90360609 L45.8539401,9.99937776 L45.2449305,13.9846059 L47.3267241,13.9846059 L48.0415218,9.25841771 C48.2938604,7.6059478 48.0560798,6.15412471 46.196053,6.15412471 Z M30.0885994,6.15412471 C29.3790992,6.15412471 28.7572672,6.46643441 28.2578647,7.02960213 L28.1247256,7.18936677 L28.0956096,7.18936677 L28.2144999,6.40206686 L26.1312504,6.40206686 L24.9714633,13.9846059 L27.0537422,13.9846059 L27.573948,10.5712212 C27.7530114,9.39695956 28.1101676,8.06982414 29.5523798,8.06982414 C29.7986526,8.06305629 30.0405445,8.12993857 30.249973,8.26079471 L30.3715098,8.34690785 L30.9208316,6.34043962 C30.683051,6.23199479 30.3860678,6.15412471 30.0885994,6.15412471 Z M21.5542161,8.06982414 C22.6247141,8.06982414 23.1012459,9.16573798 22.9527543,10.1847372 L22.9527543,10.1847372 C22.802807,11.2046919 21.9705748,12.3158931 20.8991062,12.3158931 C19.8281228,12.3158931 19.3525616,11.2046919 19.5015384,10.1847372 C19.6495447,9.16573798 20.4822622,8.06982414 21.5542161,8.06982414 Z M52.4574962,7.66767058 C53.2142837,7.66767058 53.5751743,8.33841086 53.6016626,9.06095335 L53.6027253,9.19688601 L50.8221478,9.19593055 C51.0443999,8.40863064 51.625264,7.66767058 52.4574962,7.66767058 Z M34.1190295,7.66767058 C34.9221457,7.66767058 35.2788166,8.42487347 35.2642586,9.19688601 L35.2642586,9.19688601 L32.4822253,9.19593055 C32.705448,8.40863064 33.2858268,7.66767058 34.1190295,7.66767058 Z" id="Supreme"></path>
                    </g>
                </g>
            </g>
        </g>
    </g>
</svg>
